<svg width="112" height="40" viewBox="0 0 112 40" fill="none" xmlns="http://www.w3.org/2000/svg">
<path d="M20.1348 39.9825C31.255 39.9825 40.2697 31.0321 40.2697 19.9912C40.2697 8.95038 31.255 0 20.1348 0C9.01467 0 0 8.95038 0 19.9912C0 31.0321 9.01467 39.9825 20.1348 39.9825Z" fill="url(#paint0_linear_1845_16807)"/>
<path d="M11.0638 18.3919C10.7817 19.0515 10.5759 19.7344 10.4818 20.4465C10.4172 20.9135 10.3878 21.3862 10.4348 21.8649C10.4583 22.0925 9.72936 21.3104 9.54124 20.5457C9.359 19.8103 9.31197 19.0632 9.40015 18.3044C9.48245 17.5864 9.69409 16.9094 10.0409 16.279C10.2114 15.9696 10.3995 15.6778 10.6347 15.4093C10.6523 15.3918 10.6641 15.3626 10.6876 15.3276C10.5524 15.3393 10.4466 15.3976 10.3466 15.4385C10.2408 15.4852 10.135 15.5377 10.0292 15.5902C9.92336 15.6428 9.82342 15.7011 9.72348 15.7653C9.62354 15.8295 9.52948 15.8996 9.4413 15.9696C9.34724 16.0397 9.25906 16.1156 9.17088 16.1973C9.08269 16.279 9.00627 16.3607 8.92985 16.4541C8.85342 16.5416 8.78288 16.635 8.71233 16.7343C8.64179 16.8277 8.583 16.9269 8.51833 17.0261C8.45954 17.1253 8.41251 17.2304 8.34197 17.353C8.32433 17.3063 8.31257 17.2888 8.31257 17.2713C8.29494 17.1078 8.27142 16.9502 8.26554 16.7868C8.195 15.6603 8.35372 14.5629 8.75936 13.5065C9.07094 12.6893 9.53536 11.9655 10.1526 11.3352C10.4936 10.985 10.8757 10.6873 11.2931 10.4305C11.3931 10.3662 11.0344 10.1561 10.7405 10.2087C10.0821 10.3196 8.62415 11.3877 8.56536 11.4461C8.57712 11.3877 8.75936 10.9791 8.8593 10.7982C9.19439 10.1853 9.59415 9.61329 10.0468 9.0763C10.5112 8.52764 11.0227 8.03151 11.5812 7.57623C12.6394 6.71821 13.8034 6.05865 15.0967 5.60337C15.8433 5.34071 16.6075 5.14226 17.3894 5.01385C18.1537 4.88544 18.9297 4.84458 19.7057 4.84458C19.8761 4.84458 20.0407 4.84458 20.2054 4.84458C20.2171 4.8796 18.1007 7.0334 18.0714 7.01589C17.507 6.64233 16.8838 6.50225 16.2137 6.53143C15.5082 6.56062 14.8263 6.70654 14.162 6.95169C13.7152 7.11512 13.2801 7.31357 12.8686 7.55288C12.8451 7.56456 12.8216 7.58207 12.7981 7.59958C12.7922 7.60541 12.7863 7.61709 12.7687 7.64043C12.9803 7.5879 13.1743 7.53537 13.3801 7.50035C13.5858 7.45949 13.7916 7.43615 13.9974 7.41863C14.2031 7.40112 14.4147 7.39529 14.6205 7.39529C14.8204 7.39529 15.0261 7.40696 15.226 7.43031C15.4318 7.45366 15.6375 7.49451 15.8374 7.53537C16.0373 7.57623 16.2372 7.62876 16.4606 7.72215C16.39 7.7455 15.5082 8.02567 15.1143 8.21829C14.6146 8.46343 14.1502 8.76695 13.7152 9.11132C13.2743 9.46154 12.8804 9.85844 12.5218 10.2845C12.0868 10.7923 11.7223 11.3468 11.3931 11.9247C11.5165 11.8196 11.9692 11.7788 12.6452 11.2301C13.2978 10.6989 14.0209 10.2729 14.8027 9.94599C15.5376 9.64248 16.3018 9.43819 17.0896 9.3448C17.5658 9.28643 18.042 9.27476 18.5181 9.30394C18.5358 9.30394 18.5475 9.30978 18.5652 9.31561C18.571 9.35647 18.5417 9.36231 18.5181 9.37398C17.9832 9.59578 17.4894 9.88763 17.0132 10.2203C16.4018 10.6464 15.8374 11.1367 15.3436 11.6912C15.0203 12.0531 14.7146 12.4325 14.45 12.8411C13.9327 13.6349 13.5564 14.4871 13.3154 15.3976C13.2096 15.8062 13.1155 16.2206 13.0744 16.6409C13.0038 17.2713 12.9803 17.8958 13.0391 18.5262C13.0744 18.9406 13.1449 19.3433 13.2449 19.7461C13.286 19.9154 13.3331 20.0788 13.3801 20.2422C13.4271 20.2364 13.4036 20.2072 13.4095 20.1955C13.4154 20.1722 13.4095 20.1488 13.4095 20.1313C13.4036 19.857 13.4095 19.5826 13.4506 19.3142C13.5388 18.6954 13.6917 18.1001 13.9503 17.5339C14.5029 16.2615 15.6846 15.0182 15.6787 15.0357C15.6375 15.275 15.0908 20.2305 18.2654 23.6159C18.3829 23.2657 18.1772 22.5828 18.0361 21.9699C17.895 21.3571 17.8244 20.7442 17.8656 20.1138C17.9126 19.3608 18.0831 18.6371 18.3771 17.9425C18.6534 17.2946 19.0237 16.7051 19.5175 16.2031C19.8703 15.8471 20.2641 15.5435 20.7286 15.3393C20.9637 15.2342 21.2106 15.1583 21.4693 15.1291C21.5222 15.1233 21.6633 15.0999 21.6633 15.0999C21.6633 15.0999 21.5869 15.0591 21.5633 15.0532C21.4281 15.0299 21.2988 15.0007 21.1636 14.989C20.27 14.9015 17.2836 14.1252 18.2889 13.4131C18.718 13.1096 19.1824 12.8644 19.6704 12.6543C20.2054 12.4267 20.7638 12.2574 21.3164 12.0706C21.6398 11.9597 21.9572 11.8313 22.2453 11.6387C22.5451 11.4402 22.7861 11.1834 22.9331 10.8565C22.986 10.734 23.0213 10.6056 23.0566 10.4771C23.0742 10.4129 24.4557 9.55492 24.5263 9.51407C24.585 9.47905 24.6144 9.43235 24.6203 9.36815C24.6556 9.11716 25.3963 4.62862 25.3963 4.58776C25.361 4.62278 22.2041 8.52764 22.1395 8.6327C22.1571 8.65605 23.715 7.86224 23.9678 7.73966C23.9854 7.73383 24.0089 7.73966 24.0383 7.73966C24.0207 7.77468 22.8155 9.77089 22.5745 10.0686C22.4804 10.1853 22.3864 10.302 22.2864 10.4188C22.1747 10.553 22.0395 10.6639 21.8926 10.7515C21.5046 10.985 21.1224 10.9674 20.7521 10.7281C20.4346 10.5238 20.1936 10.2437 20.0172 9.91681C19.8761 9.64248 19.8467 9.35647 19.9114 9.05296C19.982 8.73777 20.1289 8.4576 20.2877 8.18326C20.5169 7.79803 20.7932 7.44782 21.0872 7.10928C21.5986 6.51976 22.1689 5.99444 22.7567 5.48663C23.2858 5.03136 26.2252 2.99429 26.2664 2.97095C26.2664 3.00597 25.7255 7.68713 25.7079 7.87975C25.6491 8.47511 25.8137 9.01793 26.1194 9.5199C26.2781 9.78256 26.4663 10.0277 26.6661 10.2612C26.9189 10.553 27.1717 10.8449 27.4304 11.1309C27.742 11.4753 28.0418 11.8313 28.3122 12.2049C28.5473 12.5317 28.7649 12.8703 28.9001 13.2497C29 13.524 29.0529 13.81 29.0529 14.1018C29.0529 14.2711 29.047 14.4345 29.047 14.6038C29.0412 15.0124 29.1646 15.3801 29.388 15.7245C29.5585 15.9813 29.7701 16.2031 29.9818 16.4249C30.6108 17.0728 31.281 17.6857 31.9747 18.2752C32.3862 18.6254 32.8036 18.9756 33.221 19.32C33.315 19.3959 33.415 19.4659 33.5149 19.5418C33.5502 19.5651 33.5796 19.6002 33.609 19.6293C33.5796 19.6819 33.5326 19.6936 33.4914 19.6994C33.2621 19.7578 33.0329 19.8161 32.8036 19.8628C32.5978 19.9037 32.3862 19.9329 32.1746 19.9679C32.1158 19.9796 32.057 19.9912 31.9864 20.0087C31.957 20.2189 31.9806 20.4232 32.0217 20.6274C32.0629 20.8259 32.151 21.0068 32.2569 21.1761C32.3627 21.3512 32.5096 21.4971 32.6566 21.6547C32.5449 21.754 32.4332 21.8357 32.3098 21.8999C31.9864 22.0808 31.6396 22.2092 31.2692 22.2734C31.0458 22.3143 30.8283 22.3435 30.599 22.3435C30.4991 22.3435 30.4227 22.3727 30.3521 22.4544C30.0993 22.7287 29.7819 22.8863 29.4115 22.9155C28.8295 22.968 28.271 22.8921 27.7361 22.6412C27.4774 22.5186 27.2187 22.3902 26.966 22.2618C26.0665 21.8065 25.1435 21.4154 24.1853 21.1119C23.862 21.0127 23.5386 20.9251 23.2035 20.8784C22.645 20.8026 22.0924 20.8317 21.581 21.1002C20.8932 21.4621 20.4875 22.0283 20.417 22.8046C20.3993 22.9972 20.4346 23.184 20.4817 23.3649C20.5463 23.6218 20.6521 23.8611 20.7932 24.0829C21.0872 24.5673 21.4634 24.9934 21.8926 25.3611C22.9449 26.2542 25.849 27.404 25.896 27.4274C25.8431 27.4449 25.8137 27.4624 25.7843 27.4682C25.3199 27.5266 24.8613 27.6083 24.3969 27.6434C23.7032 27.7017 23.0037 27.69 22.31 27.6142C21.4046 27.5149 20.5287 27.3107 19.688 26.9779C19.0825 26.7386 18.5005 26.4468 17.9538 26.0966C17.46 25.7814 14.6088 24.9 17.7186 27.2756C17.7363 27.2873 16.0138 26.9254 15.2495 26.5227C14.403 26.0791 13.6681 25.5012 13.0509 24.7833C12.3748 24.0012 11.9163 23.1023 11.6752 22.0983C11.5459 21.5613 11.493 21.0244 11.493 20.4757C11.4989 19.9971 11.4166 17.5806 11.0638 18.3919ZM23.7385 18.853C23.7267 18.9056 23.7444 18.9406 23.762 18.9815C23.8855 19.2499 24.003 19.5184 24.1324 19.7869C24.1912 19.9095 24.2558 20.0204 24.3264 20.1372C24.4616 20.359 24.6438 20.5399 24.8731 20.6683C24.973 20.7267 25.0789 20.785 25.1847 20.8376C25.7197 21.0944 26.2546 21.3454 26.7955 21.5964C27.1541 21.7598 27.5127 21.9116 27.883 22.0341C28.2887 22.1742 28.7002 22.2151 29.1293 22.1684C29.1705 22.1625 29.2058 22.1625 29.2469 22.1567C29.2881 22.1509 29.3292 22.1567 29.3939 22.1334C29.3116 22.1042 29.2528 22.0808 29.1999 22.0633C29.0706 22.0166 28.9353 21.9758 28.806 21.9174C28.4004 21.7481 28.03 21.5205 27.6714 21.2695C27.2305 20.9601 26.8307 20.6041 26.431 20.2481C26.1782 20.0204 25.9195 19.7986 25.6432 19.6002C25.12 19.2266 24.5439 18.9756 23.909 18.8647C23.8502 18.853 23.7973 18.8355 23.7385 18.853ZM27.6538 15.1116C27.4892 14.8198 27.2658 14.5863 26.9895 14.3937C26.6426 14.1544 26.2605 13.9793 25.8666 13.8333C25.6667 13.7633 25.461 13.6991 25.2493 13.6641C25.2258 13.6582 25.2023 13.6641 25.1612 13.6641C25.1847 13.7049 25.1906 13.7283 25.2082 13.7516C25.4727 14.1544 25.7314 14.5571 25.996 14.9599C26.043 15.0357 26.1076 15.0766 26.19 15.1116C26.3428 15.1758 26.4898 15.24 26.6367 15.3101C27.0718 15.526 27.7537 15.2926 27.6538 15.1116Z" fill="white"/>
<path d="M34.3439 5.90688C30.5462 2.13627 25.4904 0.0583496 20.1172 0.0583496C14.744 0.0583496 9.69411 2.13627 5.89054 5.90688C2.09285 9.67749 0 14.6972 0 20.0262C0 25.3553 2.09285 30.375 5.89054 34.1514C9.68824 37.9221 14.744 40 20.1172 40C25.4904 40 30.5403 37.9221 34.3439 34.1514C38.1415 30.3808 40.2344 25.3611 40.2344 20.0262C40.2344 14.6914 38.1415 9.67749 34.3439 5.90688ZM3.686 27.6433L5.15569 25.0168L7.61302 22.7988L6.27266 26.7094L6.10218 25.4954L3.686 27.6433ZM5.97872 30.1532L6.33145 27.0013L6.98399 27.4974L9.9469 25.4312L5.97872 30.1532ZM13.0921 30.9704L11.0345 34.2974L11.3872 31.6708L13.0921 28.1687V30.9704ZM17.1131 35.3363L15.6728 36.6438L17.6893 30.1532L18.1125 32.1319L17.1131 35.3363ZM21.3811 33.5386L19.3823 34.8811L18.2654 32.2545L19.4999 33.7137L22.3217 30.9704L24.0854 37.3909L21.3811 33.5386ZM27.6714 35.8149L27.3775 30.1532V29.2777L28.4945 31.9043L28.7884 34.3557L27.6714 35.8149ZM29.9642 34.5892L30.9048 32.7214L29.2587 32.021L29.4939 29.8614L28.0829 28.8691L30.9048 29.336L30.2581 31.7875H33.609L29.9642 34.5892ZM34.1381 26.2425L34.0617 23.2482L35.7077 26.009L35.8488 29.6279L34.1381 26.2425ZM38.1945 23.9661L34.7848 20.5224C34.7495 20.7734 33.609 22.7988 31.428 23.1256C31.2516 23.1548 31.0517 23.1898 30.8342 23.2015C30.4639 23.5342 30.0053 23.7327 29.488 23.7793C29.3469 23.791 29.1999 23.7969 29.0647 23.7969C28.4533 23.7969 27.8772 23.6684 27.354 23.4233C27.1071 23.3066 26.8484 23.1781 26.5662 23.0381C25.655 22.577 24.7908 22.2209 23.9208 21.9407C23.5916 21.8357 23.327 21.7715 23.0919 21.7423C22.9508 21.7248 22.8214 21.7131 22.7039 21.7131C22.4276 21.7131 22.2042 21.7656 21.9984 21.8707C21.5575 22.0983 21.3459 22.4135 21.3047 22.8805C21.2988 22.9622 21.3341 23.1023 21.3459 23.149C21.387 23.3124 21.4576 23.47 21.5575 23.6334C21.7927 24.0187 22.0807 24.3981 22.4746 24.6957C24.7379 26.4176 28.3122 27.4974 28.3122 27.4974C28.3122 27.4974 24.0854 30.3283 18.5946 27.4507L18.9708 28.3438L17.7245 28.1512C17.46 28.1512 15.6434 27.7192 14.8439 27.299C13.8974 26.8028 13.0744 26.1491 12.3866 25.3553C11.6929 24.5556 11.1991 23.6393 10.911 22.6295C10.7641 22.7229 10.5936 22.7754 10.4113 22.7754C10.2114 22.7754 10.0233 22.717 9.84108 22.5886C9.65296 22.4602 9.47072 22.2618 9.27084 21.9816C9.10624 21.754 8.8123 21.287 8.68296 20.75C8.67121 20.6916 8.65357 20.6333 8.64181 20.5749L4.09751 22.9155L1.28158 22.3552C1.18752 21.5905 1.13461 20.8142 1.13461 20.0262C1.13461 9.63664 9.64709 1.18486 20.1113 1.18486C22.163 1.18486 24.1442 1.51173 25.996 2.11292C26.384 2.24134 26.7661 2.37558 27.1482 2.52734C34.1381 5.30569 39.088 12.1056 39.088 20.0262C39.088 21.2987 38.9587 22.5361 38.7177 23.7385L38.1945 23.9661Z" fill="white"/>
<path d="M51.5955 11.4619L53.7557 11.3559L62.9188 23.0932L62.755 11.5148L65.0381 11.6843L65.1609 26.2394L62.9598 26.4195L53.7967 15.0953L53.9298 26.5254L51.79 26.6102L51.5955 11.4619Z" fill="white"/>
<path d="M68.775 11.5148L71.0581 11.5996L71.1911 26.2394H69.1333L68.775 11.5148Z" fill="white"/>
<path d="M86.4561 11.3771L88.862 11.3136L91.6365 27.0657L89.5173 27.5L87.4594 14.2055L84.0809 25.7203L81.5418 26.0275L77.7128 14.8517L75.8597 27.0021L73.6995 26.6949L76.5354 11.25H78.6547L82.7806 23.464L86.4561 11.3771Z" fill="white"/>
<path d="M107.024 22.4682C107.045 23.2239 106.929 23.8665 106.676 24.3962C106.424 24.9329 106.079 25.3849 105.642 25.7521C105.212 26.1123 104.711 26.4054 104.137 26.6314C103.557 26.8503 102.953 27.0198 102.325 27.1398C101.69 27.2528 101.052 27.327 100.411 27.3623C99.769 27.3976 99.1683 27.4153 98.6086 27.4153C98.0421 27.4153 97.4108 27.3976 96.7146 27.3623C96.0252 27.334 95.2676 27.2846 94.4418 27.214L94.0015 11.7903C94.7114 11.6561 95.4007 11.5572 96.0696 11.4936C96.7385 11.423 97.3357 11.3736 97.8613 11.3453C98.4755 11.31 99.0557 11.2994 99.6017 11.3136C100.127 11.3206 100.649 11.3524 101.168 11.4089C101.694 11.4583 102.195 11.5431 102.673 11.6631C103.158 11.7761 103.608 11.935 104.025 12.1398C104.434 12.3376 104.796 12.5989 105.11 12.9237C105.417 13.2415 105.659 13.6264 105.837 14.0784C106.014 14.5233 106.103 15.0494 106.103 15.6568C106.103 16.4477 105.963 17.1257 105.683 17.6907C105.403 18.2486 105.038 18.7112 104.588 19.0784C105.134 19.2691 105.571 19.541 105.898 19.8941C106.233 20.2401 106.492 20.6285 106.676 21.0593C106.854 21.4831 106.97 21.9527 107.024 22.4682ZM99.6427 13.2415C99.3287 13.2415 98.9806 13.2521 98.5984 13.2733C98.2776 13.2874 97.909 13.3157 97.4927 13.3581C97.0832 13.4004 96.6464 13.4569 96.1822 13.5275L96.346 18.9301C96.933 18.916 97.4654 18.8983 97.9432 18.8771C98.4278 18.8489 98.8441 18.8242 99.1922 18.803C99.397 18.7888 99.5915 18.7747 99.7758 18.7606C99.9601 18.7465 100.131 18.7323 100.288 18.7182C100.793 18.69 101.274 18.6052 101.731 18.464C102.195 18.3157 102.598 18.1144 102.939 17.8602C103.281 17.6059 103.543 17.2952 103.728 16.928C103.919 16.5607 103.99 16.137 103.943 15.6568C103.902 15.2966 103.81 14.9859 103.666 14.7246C103.38 14.209 102.943 13.8312 102.356 13.5911C102.09 13.4852 101.796 13.3969 101.475 13.3263C101.168 13.2698 100.858 13.238 100.544 13.2309C100.23 13.2168 99.9294 13.2203 99.6427 13.2415ZM101.588 20.4237C101.52 20.4308 101.393 20.4414 101.209 20.4555C101.025 20.4696 100.847 20.4838 100.677 20.4979C100.506 20.512 100.404 20.5191 100.37 20.5191L99.1615 20.6144C98.7929 20.6427 98.3698 20.6744 97.892 20.7097C97.4142 20.738 96.9194 20.7662 96.4075 20.7945L96.561 25.4873C96.6566 25.4944 96.7521 25.5014 96.8477 25.5085C96.9433 25.5085 97.0354 25.5085 97.1241 25.5085H97.6667C97.8237 25.5085 98.0046 25.5085 98.2094 25.5085C98.4141 25.5085 98.6394 25.5049 98.8851 25.4979C99.3697 25.4979 99.8782 25.4732 100.411 25.4237C100.95 25.3743 101.489 25.2931 102.028 25.1801C102.561 25.06 103.042 24.8905 103.472 24.6716C103.895 24.4456 104.233 24.1596 104.485 23.8136C104.745 23.4605 104.864 23.0191 104.844 22.4894C104.782 22.1081 104.625 21.7655 104.373 21.4619C104.106 21.1511 103.745 20.9004 103.287 20.7097C102.837 20.5191 102.27 20.4237 101.588 20.4237Z" fill="white"/>
<path d="M109.584 11.5148L111.867 11.5996L112 26.2394H109.942L109.584 11.5148Z" fill="white"/>
<defs>
<linearGradient id="paint0_linear_1845_16807" x1="5.89735" y1="5.8553" x2="34.1685" y2="34.3295" gradientUnits="userSpaceOnUse">
<stop offset="0.00558659" stop-color="#1788FF"/>
<stop offset="1" stop-color="#B217FF"/>
</linearGradient>
</defs>
</svg>
