<svg width="1610" height="318" viewBox="0 0 1610 318" fill="none" xmlns="http://www.w3.org/2000/svg">
<path d="M-65.0533 163.589L-80.5492 185.185L-122.038 207.861L-151.53 244.574L-188.021 248.353L-218.013 275.888H-230.509L-265 304.503L1610 318L1526.52 240.795H1490.03L1388.06 131.195L1347.57 144.153L1294.58 131.195L1254.09 144.153L1194.61 98.2615L1160.12 111.219L1129.63 86.9236L1111.13 98.2615L1062.65 58.309L1038.15 86.9236L1011.66 71.8065L974.669 98.2615L948.676 86.9236L885.193 144.153L850.703 131.195L805.714 164.129L759.227 131.195L677.749 201.382H634.76L557.281 256.452H541.285L469.804 304.503L400.822 240.795H355.834L325.343 201.382H282.354L190.878 58.309H160.387L102.402 0L78.9083 21.5959L-0.0706482 86.9236L-65.0533 163.589Z" fill="#242D32"/>
</svg>
