<svg width="728" height="340" viewBox="0 0 728 340" fill="none" xmlns="http://www.w3.org/2000/svg">
<g clip-path="url(#clip0_3794_17067)">
<path d="M436.4 230.5C436.2 230.2 435.7 230.5 436 230.8C441.9 241.6 448.9 251.6 455.2 261.9C469.4 285.4 482.7 304.6 497 329.1C499.3 332.7 501.6 336.3 503.9 340H509.6C505.2 333.1 501 326.3 497.4 320.7C487.2 305.2 474.7 289.1 463.8 272.2C456.2 260.3 447.7 248.2 439.8 236.1C438.8 234.2 437.5 232.7 436.4 230.5Z" fill="#1C2327"/>
<path d="M463.2 262.7C463 262.4 462.8 262.4 462.5 262.4C462.3 262.7 462.3 262.9 462.5 263.2C474.9 281.4 488 301.1 499.5 319.1C503.7 326.2 508 333.1 512.3 340H517.4C511.6 331.5 505.7 323.2 499.5 315.1C489.3 300.9 479.5 286.6 469.4 272.2C467.3 269 465.3 265.9 463.2 262.7Z" fill="#1C2327"/>
<path d="M334.2 321.5C338.8 314.9 349.2 298.6 357.3 286.5C363.2 277.8 368.6 268.8 374.5 260.2C375.2 259.1 376 258.1 376.7 257V256.7C376.7 256.4 376.3 256.4 376 256.4C366 270.6 356.2 285.1 345.9 299.1C342.4 304.1 338.7 308.8 335 313.9C334.6 315 331.5 318.1 331.5 318.6C330.8 319.1 330.6 319.9 330 320.4C326.9 324.4 323.9 328.3 320.8 332.5C334.1 312.5 350 289 363.9 268.2C370 259 376.5 249.8 382.4 240.3C382.6 239.8 383.3 239.2 383.1 238.7C382.9 238.2 382.2 237.9 382 238.4C368.9 258.2 354.8 277.9 341.3 297.4C331 311.5 320.7 325.7 310.6 339.9H321C325.4 333.8 329.9 327.6 334.2 321.5Z" fill="#1C2327"/>
<path d="M503.5 276.9C502.4 275.3 501.3 273.5 500 271.9C499.6 271.6 499.3 272.4 499.6 272.7C507 283.2 513.3 295.1 520.3 306.4C527.2 317.5 533.5 328.7 539.9 340H544.8C536.4 326.9 527.2 313.2 519 300.4C513.9 292.5 508.5 284.8 503.5 276.9Z" fill="#1C2327"/>
<path d="M534.9 306.2C534.7 305.9 534.2 306.5 534.7 306.7C542.9 318.1 549.7 329.3 557.3 340H561.5C560 338.2 558.5 336.5 557 334.6C551.3 327.5 545.5 320.6 540 313.3C538.1 310.9 536.6 308.5 534.9 306.2Z" fill="#1C2327"/>
<path d="M490.6 264.8C490.4 265.1 490.4 265.6 490.6 265.6C506.2 289.8 520.6 315.2 535.3 340H539.4C537 336.4 534.6 332.7 532.1 328.8C521.2 311.7 511.2 295.3 499.8 278.2C497 273.7 494.1 269.2 491.3 264.8C491.3 264.5 490.8 264.5 490.6 264.8Z" fill="#1C2327"/>
<path d="M520.5 293.5C520.3 293.2 520.1 293 519.8 293.2C519.6 293.5 519.4 294 519.6 294.3C529.4 309.4 538.3 324.8 548.1 340H553.3C545.3 329.1 537.5 318 529.9 307C527.2 303.3 523.7 297.5 520.5 293.5Z" fill="#1C2327"/>
<path d="M421.5 214.2C420.8 213.1 420.2 211.8 419.5 211C419.3 211 418.8 211.3 419.1 211.5C444.2 251.5 469.7 291.6 493.8 332.4C495.4 335 496.9 337.5 498.3 339.9H502.5C494.8 328.2 487.3 316.6 478.7 303.2C460.8 275.8 443.4 247.6 425.3 220.5C424.2 218.4 422.8 216.6 421.5 214.2Z" fill="#1C2327"/>
<path d="M415.2 335.4C414.1 336.9 413.1 338.4 412.1 340H416.1C416.7 339.1 417.4 338.1 417.8 337C418.1 335.4 416.1 334.1 415.2 335.4Z" fill="#1C2327"/>
<path d="M457.9 279.6C457.7 279.1 456.8 279.6 457.2 280.1C465.9 293.3 474.6 306.7 483.1 320.4C487.1 326.9 491 333.4 494.8 340H496.8C489 328.1 481.1 316 473.3 303.8C468.2 295.6 463.2 287.5 457.9 279.6Z" fill="#1C2327"/>
<path d="M405.6 317.8C400.2 325.5 394.5 332.6 389 340H393.7C396.3 335.6 398.8 331 401.6 326.2C402.7 324.4 404 322 405.1 320.7C405.5 319.9 406.4 319.1 406.4 318.1C406.5 317.5 405.9 317.5 405.6 317.8Z" fill="#1C2327"/>
<path d="M310.6 336.7C326.7 313.8 340.7 293 356.6 268.5C361.8 260.6 367.5 251.9 372.7 243.2C372.9 242.4 373.8 241.9 373.8 241.1C373.8 240.6 373.1 240.6 372.9 241.1C356.6 266.1 338.5 289.8 320.8 313.8C314.5 322.5 308.3 331.3 302 340H308.1C309 338.9 309.8 337.8 310.6 336.7Z" fill="#1C2327"/>
<path d="M407.6 324.3C403.6 329 399.2 335.1 395.8 340H399.7C401.3 337.1 403 334.3 404.8 331.5C406.3 328.9 407.6 327 408.7 325.2C408.9 324.3 408 323.6 407.6 324.3Z" fill="#1C2327"/>
<path d="M364 248.2C365.5 245.8 367.1 243.7 368.4 241.3C368.4 240.8 367.7 240.5 367.5 241C354.4 261 339.6 279.7 325.2 298.4C314.9 312.1 304.6 326 294.2 339.9H300.2C315 319.7 329.6 299.2 343.7 278.4C350.7 268.5 357.5 258.5 364 248.2Z" fill="#1C2327"/>
<path d="M410.4 331.2C408.1 334 405.7 336.9 403.6 340H407.7C409.3 337.4 411 334.8 412.1 332.3C412.4 331.2 411.1 330.4 410.4 331.2Z" fill="#1C2327"/>
<path d="M489.7 336.5C485.1 328.9 480.5 321.2 475.8 313.8C475.4 313.3 474.7 312 474.3 312C474.1 312 474.1 312.3 474.3 312.5C480.1 321.3 485.7 330.6 491.2 340H491.9C491.1 338.8 490.4 337.7 489.7 336.5Z" fill="#1C2327"/>
<path d="M554 323.8C557.6 329.2 561.5 334.7 565.6 340H569.2C565.6 336 562.1 331.7 558.6 327.5C557.3 325.9 556 324.1 555.1 322.8C554.5 322.2 553.6 323 554 323.8Z" fill="#1C2327"/>
<path d="M505 311.7C504.8 311.2 504.1 311.7 504.3 312.2C510.3 321.8 516.4 331 522.5 340H524.4C521.6 336.1 518.7 332.3 516.1 328.6C512.2 323 508.7 317.5 505 311.7Z" fill="#1C2327"/>
<path d="M216.9 267.4C217.1 267.1 217.1 266.3 216.9 266.1C216.7 265.8 216 265.8 215.8 266.1C193.5 288.8 172.4 314.1 151.8 340H163.5C171.8 330.3 179.9 320.8 188.4 310.9C203.9 292.7 219.8 275.1 235.5 257.4C240.9 251.1 246.6 245.3 251.8 239C252 238.5 252.7 238.2 252.7 237.7C252.7 237.2 252.3 236.9 251.8 237.2C237.9 252 223.9 266.7 210 281.7C213.5 277.5 217.2 273.3 220.7 269.1C225.7 263 230.9 257.2 236 251.2C236.2 250.9 236.4 250.7 236.4 250.4C236.4 249.9 236 249.9 235.7 250.1C221.1 265.6 206.3 281.2 191.7 297.3C196.9 291.2 201.9 285.2 207 279.1C210.2 275.1 213.7 271.1 216.9 267.4Z" fill="#1C2327"/>
<path d="M353.1 201.8C359.6 192.1 366.4 182.8 372.7 173.1C372.9 172.8 373.1 172.6 373.1 172C372.9 171.5 372.2 171.2 372 171.7C359.4 190.7 346.3 209.6 333.2 228.3C318.8 248.3 303.6 267.6 288.3 286.8C275.3 303.7 261.7 321.7 248.2 339.9H265.2C290.9 306.4 315.4 271.7 339.7 236.8C349.5 222.8 359.5 209.1 369.6 195.2C372.2 191.5 374.8 187.8 377 183.9C377.2 183.1 376.1 182.8 375.9 183.4C363.5 201.1 350.2 217.9 337.8 235.3C323.2 255.3 309 275.9 294 295.6C284.6 308.2 274.8 320.4 265.2 332.8C292.2 297.5 318.2 261.4 343.4 224.2C352.1 211.6 360.8 198.6 370 186.3C372 183.7 374.1 181 375.9 178.1C376.1 177.3 375.2 176.8 374.8 177.3C358 200.2 341.7 223.4 324.7 246.3C311.6 264 298.1 281.3 284.8 298.7C290 291.3 295.5 284.2 300.7 276.8C318.9 252.4 336.1 227.4 353.1 201.8Z" fill="#1C2327"/>
<path d="M178.8 298.8C179 298.5 179 298.3 179 298.3C179 297.5 178.1 297 177.7 297.8C165.4 312 153 326.1 140.6 340H149.8C151 338.7 152.1 337.3 153.3 335.9C162.7 324.6 171.8 313 181.2 301.4C186.9 294.5 192.7 288 198.9 281.4C200 280.1 201.3 279.3 202 277.7C202 277.4 201.6 277.2 201.3 277.4C190.4 288.7 179.3 299.8 168.6 311.4C168.2 311.9 167.7 312.5 167.3 313C169.5 310.4 171.7 307.5 173.8 304.8C175.5 302.7 177 300.9 178.8 298.8Z" fill="#1C2327"/>
<path d="M260.5 256.6C265.9 250 271.8 243.7 277.1 236.8C277.3 236.5 277.8 236 277.5 235.7C277.5 235.2 276.8 235.2 276.6 235.4C267.4 247.5 257.2 258.3 247.6 269.9C231.9 288.1 216.2 306.5 200.5 324.7C196.2 329.7 192.2 334.8 188.2 339.8H211.6C230.7 316.2 250.9 293.6 270.3 270.1C293.4 241.9 312.8 214.8 333.3 186.8C342.2 174.9 351.2 162.8 360.1 150.7C361 149.4 362.1 148.3 362.9 147C363.1 146.7 363.1 146.7 363.1 146.5C363.8 146.2 362.9 145.7 362.7 146.5C349.6 164.9 335.5 182.1 321.5 199.5C313.2 210 305.2 220.6 296.9 230.9C286 244 274.2 258.7 262.5 273C244.6 294.3 226.5 315.2 208.9 336.5C222.2 319.1 235.3 301.5 249 284.6C259.7 271.2 269.9 257.5 280.8 244.3C284.1 240.1 287.6 236.1 290.8 232.2C291 231.9 291 231.1 290.8 230.9C290.6 230.6 289.9 230.6 289.7 230.9C276.6 246.4 264.2 262.5 250.9 278.1C245.5 284.4 240 291 234.3 297.3C240.8 288.6 247.6 280.2 254.1 271.5C261.5 262 269.1 252.8 276.5 243.3C278.5 240.9 280.6 238.6 282.4 235.9C282.6 235.4 282 234.8 281.5 235.4C258.2 263.3 234.4 290.5 211.1 318.1C215 313.1 218.9 308.1 223.1 303.1C235.7 287.5 247.9 271.7 260.5 256.6Z" fill="#1C2327"/>
<path d="M253.3 249.8C256.3 246.6 259.4 243.5 262.2 239.8C262.4 239.5 262.4 239.3 262.2 239C262 238.7 261.8 238.7 261.5 239C242.8 259.3 223.6 279.3 204.8 299.9C207.6 296.2 210.7 292.8 213.7 289.1C223.7 277.5 233.7 265.9 243.6 254.3C245.8 251.7 248.2 249.3 250.1 246.4C250.3 245.6 249.4 244.8 249 245.6C240.5 256.4 230.7 265.9 221.5 275.9C209.3 289.1 197.3 302.2 185.8 316C179.1 323.9 172.3 331.9 165.5 340.1H181.9C189.6 330.7 197.2 321.5 204.9 312.1C214.9 299.7 224.9 287.1 235.2 275.2C244.8 263.9 254.8 253.6 264.6 242.8C265.9 241.2 267.2 239.9 268.5 238.3C268.7 238 268.7 238 268.7 237.8C268.7 237 267.8 236.7 267.4 237.3C257.8 249.2 247.1 259.7 236.9 271C226.7 282.6 215.8 293.9 205.3 305.3C211.8 297.1 218.8 289 225.8 280.8C235 270.1 243.9 259.8 253.3 249.8Z" fill="#1C2327"/>
<path d="M96.6002 301.4C97.7002 299 99.0002 296.9 99.9002 294.3C100.1 293.2 98.8002 292.7 98.4002 293.8C90.0002 309.5 81.0002 324.7 72.2002 340H78.4002C79.3002 338.4 80.2002 336.8 81.1002 335.2C88.3002 322.3 95.7002 309.9 102.5 296.7C102.9 295.4 104 294.1 104.2 292.7C104 291.9 103.1 291.9 102.9 292.4C95.7002 306.6 87.6002 319.8 79.4002 333.2C80.5002 331.4 81.4002 329.5 82.5002 327.7C87.3002 319.1 92.1002 310.4 96.6002 301.4Z" fill="#1C2327"/>
<path d="M114.7 289.8C115.4 288.5 113.6 287.2 113 288.5C104 305.9 94.9002 322.9 85.7002 340H100.8C110.9 332.8 121.1 325.8 131.5 319.1C135.9 316.3 140.3 313.5 144.6 310.5C145 310.3 145.3 310 145.7 309.8C145.7 309.7 145.8 309.7 145.9 309.6C156.9 302.2 167.8 294.5 178.9 287.1C185.7 282.4 192.4 277.9 198.7 272.3C201 270.2 203.5 267.8 206 265.4C212.4 260.1 218.7 254.6 224.9 249.1C232.6 242.8 241.3 235.9 247.7 232C248.7 231.7 249.9 231.5 251.3 231.5H251.4C253.4 231.4 255.6 231.5 257.7 231.5C264.5 231.5 271 231.5 277.7 231C281.2 230.7 284.7 230.2 287.9 229.9C288.6 229.9 289.2 229.4 289.4 228.8C294.2 227 298.8 222.5 302.9 217.5C308.1 211.4 313.1 205.1 317.9 198.8C325.3 189.1 333.2 180.1 340.8 170.9C346.9 163.3 352.8 155.6 358.9 148C359.1 147.7 359.1 147.5 359.3 147.2C360.2 146.4 361 145.4 362.1 144C362.1 144 362.1 144 362.3 143.7C362.3 143.7 362.5 143.7 362.5 143.4H362.7C362.7 143.4 362.8 143.4 362.9 143.4C362.7 143.7 362.5 144.1 362.3 144.4C363.1 144.1 363.8 144 364.6 144C366 144.7 367.9 145.9 369.7 147C374.1 149.9 378.4 152.8 382.8 156C389.6 161 396.1 166.3 402.8 171.5C404.5 173.1 408 177.3 410.4 180.2C417.4 188.9 423.9 198.1 430.7 206.8C439.2 218.1 448.1 228.9 457.1 239.7C460.8 243.9 464.3 248.4 468.2 252.3C469.3 253.4 470.4 254.7 471.9 256C474.1 258.1 476.7 260.2 479.5 260.2C481.5 259.9 483.2 258.9 484.7 257.6C487.3 255.5 489.7 253.1 492.1 250.8C493.8 247.9 499.5 253.2 505.2 257.9C514.6 265.8 523.7 273.4 532.9 281.6C539.9 287.7 546.2 294 554.9 299.8C559.9 302.4 563.4 302.4 568.8 304.3C571.2 305.1 573.8 307.5 576.6 309.8C580.5 313.2 584.4 316.7 588.4 320.1C596.5 326.9 604.6 333.5 612.8 339.7H629.6C628.4 338.5 627.1 337.2 625.9 335.9C612 321.1 598.4 305.9 585.4 290.1C580.4 284.3 575.8 278 571 271.9C570.8 271.6 570.8 271.4 570.3 271.4C570.1 271.4 569.9 271.9 570.1 272.2C578.2 282.5 585.1 293.5 593.4 303.8C602.8 315.7 611.9 328 622.2 339.1C617 334.6 611.7 328.8 605.6 322C593.6 308.8 582.1 294.9 571.2 280.4C564.9 272.2 559.2 263.8 553.5 255.1C553.1 254.6 552.6 253.5 552 253.3C551.6 253.3 551.3 254.1 551.6 254.4C559.7 265.5 567.1 277.3 575.1 288.4C582.9 299.2 591.4 309.7 599.5 320.3C602.9 324.6 606.3 328.9 609.8 333.1C601.5 326.8 593.4 320.1 585.3 313.4C582.4 311.1 579.7 308.3 576.9 305.9C568.5 296.7 560.2 287.4 552.4 277.6C542.8 265.5 533 253.9 523.9 241.5C519.1 235.2 514.5 228.6 509.7 222C509.5 221.7 509.3 221.7 509 222C508.8 222.3 508.8 222.5 509 222.8C521 239.4 533.4 257.3 544.3 272.9C551.5 282.5 559.2 291.5 566.8 300.6C566.5 300.5 566.1 300.4 565.8 300.3C548.1 280.9 528.6 256.9 513.9 235.2C502.6 218.6 491.9 201.7 481.2 184.3C478.4 179.6 475.3 174.6 472.5 169.5C471.8 168.2 471.2 166.9 470.3 165.8C470.3 165.8 470.1 165.5 469.9 165.8C469.7 165.8 469.5 166.3 469.5 166.6C487.8 199.8 507.2 230.6 528.3 260.7C537 272.2 546 284.4 555.3 295.5C554.9 295.3 554.6 295 554.2 294.7C546.6 285.8 539.1 276.6 532 267C524.6 257 517 247 509.8 236.4C506.7 232.2 503.9 228 501.1 223.8C500.9 223.5 500.4 224.1 500.7 224.3C514.5 245.5 528 266.3 543.3 286.1C541.5 284.6 539.8 283.2 538 281.7C537.3 280.8 536.6 280 536 279.1C527.9 268.6 520.1 258 512.5 247C510.1 243.8 507.9 240.4 505.7 237.3C505.5 237 505.3 237 505 237.3C504.8 237.6 504.8 237.8 505 238.1C513.1 249.4 519.8 261.6 527.9 272.9C528 273.1 528.2 273.3 528.3 273.5C526.3 271.8 524.4 270.1 522.4 268.4C517.5 261.5 512.7 254.4 507.8 247.6C507.4 247.1 507.1 246.3 506.5 246.3C506.1 246.3 505.8 247.1 506.1 247.4C510.5 253.3 514.5 259.1 518.5 265C517.7 264.3 516.9 263.6 516.1 262.9C514.9 261.3 513.7 259.7 512.5 258.2C504 247.1 495.5 236.3 487.7 224.5C487.5 224 487.3 223.7 486.8 223.2C486.6 222.9 486.4 222.4 485.9 222.1C485.7 222.1 485.5 222.6 485.7 222.9C493.1 234.4 502.2 246.7 509.5 257.4C508.5 256.5 507.4 255.7 506.4 254.8C503.4 252.4 502 250.8 499 248.7C494.3 242.4 489.5 236 485.3 229.2C482.2 224.7 479.4 220.2 476.8 215.5C475.9 214.4 475.1 212.3 474.2 211.8C473.8 211.8 473.5 212.6 473.8 212.9C481.2 224.3 488.2 235.6 495.4 246.8C494.5 246.6 493.5 246.6 492.6 247C484.9 235.7 477.7 224.8 470.1 213.2C466.6 207.9 463.6 202.4 460.3 197.1C459.9 196.6 459.4 195.5 458.8 195.3C458.4 195.3 458.1 196.1 458.4 196.4C469.1 213.3 479.3 231.5 490.4 248.8C490.3 248.9 490.3 248.9 490.2 249C476.1 228.8 462.4 208.4 449.5 187.2C439.7 171.1 430.5 154.8 421.6 138.2C418.8 132.9 415.9 127.4 413.1 122.1C412.7 121.3 412.2 120.3 411.6 119.7C411.2 119.7 410.9 120 411.2 120.5C423 141.8 434.1 163.7 446.3 184.5C459.9 207.4 473.6 229.6 487.8 251.2C487.5 251.5 487.2 251.8 486.9 252.1C483.7 247.5 480.7 243.1 477.7 238.3C467 221.4 450.7 194.8 437 172.7C433.7 167.2 430.5 161.6 427.4 155.8C427.2 155.3 426.5 155.8 426.7 156.3C435 171.6 443.7 186.3 452 201.4C460.7 217.5 469.7 233.5 479.2 248.8C480.7 251 482 253.2 483.4 255.3C483.2 255.5 482.9 255.7 482.7 255.9C482.5 256.1 482.3 256.2 482 256.4C479.9 253.2 477.8 250 475.9 247C469.1 236.7 460.4 222.2 453.7 210.1C452 207.2 450.4 203.8 448.5 200.9C448.1 200.4 447.2 201.2 447.6 202C457.4 220.6 467.9 239 478.9 256.9C477.5 256.4 476.1 255.2 474.6 253.7C473.3 252.6 471.8 251.1 470.5 249.7C468.1 247.1 465.5 244.2 464.2 242.8C451.8 229.6 440.2 215.4 429.3 200.9C421.2 190.1 413.6 178.8 404.5 169.3C399.1 165.1 393.8 161.1 388.4 157C390.4 153.4 392.4 149.8 393.6 147.1C394 145.8 395.3 144.7 395.1 143.1C394.9 142 393.6 141.5 392.7 142.3C390 146.2 387.6 150.2 385.3 154.6C384.2 153.8 383.2 153 382.1 152.2C382.9 150.6 383.7 149 384.6 147.5C385.9 144.6 387.9 141.7 389.2 138.8C389.4 137.5 387.9 136.7 387.2 137.7C385 141.1 382.1 145.4 379.2 149.9C378.4 149.3 377.7 148.8 376.9 148.2C376.7 148.1 376.6 148 376.4 147.8C376.5 147.6 376.6 147.4 376.7 147.1C380.2 141 383.7 134.7 386.9 128.7C387.6 127.4 385.8 126.3 385.2 127.6C381.8 132.9 377.7 139.3 373.7 145.6C373.4 145.4 373.2 145.2 372.9 145C376.2 138.9 379 133.6 382.2 127.3C383.5 124.9 384.8 122.6 386.3 120.2C386.7 119.1 385.6 118.1 385 119.1C379 127.5 374.3 134.7 369.6 142.5C369.3 142.3 369 142.1 368.7 142C372.6 134.9 376.3 127.8 380 120.5C379.8 121 380.9 118.9 381.1 118.4C381.8 117.1 382.6 115.5 383.1 114.2C383.3 113.1 382 112.6 381.6 113.4C376.5 121.9 370.7 130.8 365.1 140.2C364.6 140.1 364 140 363.5 140C366 135.8 368.5 131.6 370.7 127.6C374 121.8 377.2 116.3 380.1 110.5C380.5 109.4 379 108.1 378.4 109.4C369.4 124.9 359.4 140.1 350.1 154.7C349.6 155.4 349.1 156.1 348.6 156.7C356 144.1 363.1 131.5 370.4 118.9C372.6 114.9 375 111 377.2 107C377.4 106.7 377.6 106.5 377.6 106.2C377.6 105.9 376.9 105.7 376.9 106.2C364.5 126.2 350.7 146.5 339 165C344 156.3 349 147.3 353.8 139.2C360.3 127.6 367.3 116.3 373.6 104.4C374.3 103.1 375.1 101.8 375.3 100.2C375.1 99.7 374.4 99.4 374.2 99.9C365.3 116.2 353.1 133.9 344.3 148.4C342.1 152.1 339.7 156 337.5 159.7C346.2 144.4 354.9 129.1 363.9 113.9C368 106.5 372.4 99.4 376.3 91.8C376.5 91.5 376.7 91.3 376.7 90.7C376.7 90.4 376 90.2 376 90.7C359.7 117.3 343 144.2 327.5 170.8C327 170.6 326.6 170.5 326.1 170.3C329.5 164.3 332.8 158.1 336.2 152.1C343.6 138.7 351 125 358.6 111.5C361.6 106.2 364.7 101 367.5 95.7C367.9 95.4 367.5 95.2 367.3 95.4C357 113.3 345.7 131 335 148.3C337.4 144.1 339.8 139.6 342.2 135.1C349.8 120.9 357.5 106.9 364.9 92.7C366.2 90.1 368 87.2 369 84.5C369 83.7 368.1 83.2 367.9 84C352.1 112.3 335.2 139.9 318.9 167.9C318.5 167.7 318 167.5 317.6 167.4C329.2 147 340.6 126.3 352 105.6C357.9 94.8 364 84.3 369.7 73.2C370.1 72.4 370.8 71.6 370.8 70.6C370.6 70.3 369.9 70.1 369.9 70.6C350.5 101.5 331.8 133.4 313 165.6C312.4 165.4 311.8 165.1 311.2 164.9C318.2 151.9 325.2 139 332 126C338.8 112.8 345.9 100.2 353.1 87.3C354.8 84.1 356.8 80.7 358.3 77.6C358.5 76.5 357.9 76 357.4 76.8C341 105.9 323.1 133.9 306.8 163.2C306.6 163.1 306.3 163 306.1 162.9C319.1 139.7 331.7 116 344 92.4C348.8 83.2 354 74.2 358.6 64.7C358.8 63.9 359.5 63.4 359.5 62.6C359.5 62.6 359.1 62.6 358.8 62.9C349.4 81.1 338.5 97.9 328.7 114.5C319.4 129.9 310.6 145.6 301.7 161C300.9 160.7 300.1 160.3 299.3 159.9C315.6 132.9 330.9 105.2 345.9 77C351.3 66.7 357 56.4 362.9 46.2C363.1 45.4 364 44.9 363.8 44.1C363.8 43.8 363.1 43.6 362.9 44.1C346.3 71.5 331.1 100.2 314.1 127.1C307.9 137 301.4 147.3 294.8 157.8C293.9 157.4 292.9 156.9 292 156.5C306 134.6 319.9 112.6 333.1 89.6C339.2 78.8 345.3 68 351 56.9C352.1 54.8 353.2 52.7 354.1 50.6C353.9 49.8 353.2 49.5 353 50.1C346 62.7 336 75.9 329.5 87C316.5 108.3 301.9 131.6 287.6 154.5C287.2 154.3 286.7 154.1 286.3 153.9C302.3 128.7 318.1 103.2 333.4 77.5C340.2 66.2 346.7 54.6 353.9 43.5C356.1 40.1 358.5 36.9 360.7 33.5C360.3 33.2 360.3 32.7 360 32.7C359.8 32.4 359.6 32.7 359.3 33C344.7 55.4 330.1 76.5 316.2 97.6C306 113.3 293.3 133 281.4 152C280.6 151.7 279.7 151.4 278.9 151.1C284.1 142.7 289.9 134 293.5 128.4C310.9 102.1 325.5 79.9 340.6 55.4C345 48.8 350.2 40.9 355.2 34.1C356.3 32.5 357.4 30.9 358.3 29.4C358.5 29.1 358.1 28.9 357.9 29.1C344 48 330 66.4 316.3 85.1C304.3 102.5 292.8 120.4 281.2 138.1C287.1 127.6 293 116.8 298.9 106.2C301.7 101.5 305 95.9 307.6 92C309.3 89.4 311.1 86.7 312.6 84.4C312.8 83.9 312.2 83.1 311.7 83.6C297.1 105.7 283.8 127.3 269.9 150.5C268.4 152.9 267 155.2 265.6 157.4C264.7 158.4 263.7 159.4 262.7 160.7C262.5 161 262.2 161.3 262 161.6C266.7 153.6 271.3 145.4 276 137.2C283.2 124.3 291 112.2 298.7 99.8C301.1 95.8 303.5 92.2 305.7 87.9C305.9 87.6 305.5 87.4 305.3 87.6C296.6 102.1 286.8 115.8 277.6 130C263.2 152.1 249.5 175.3 235.3 196.9C231.2 203.2 226.4 210.3 221.1 218C236.4 193 251.6 167.9 266.9 142.9C275.4 128.9 284.3 115 293.1 101C295.7 96.8 298.3 92.8 300.7 88.6C300.9 88.3 300.7 88.1 300.5 87.8C300.3 87.5 300.1 87.8 299.8 88.1C289.8 104.4 278.2 120 267.5 136.1C254.6 155.3 240.5 177.7 228.7 196.7C220.2 210.1 211.7 223.6 203.4 237C203.3 237 203.2 237.1 203.1 237.1C203.5 236.4 203.9 235.8 204.3 235.1C214.8 217.4 225.9 200.1 236.6 182.4C249.7 161.3 261.7 142.1 275.2 121C280.6 112.3 286.1 103.6 291.8 94.9C292.2 94.1 292.9 93.6 292.9 92.8C292.9 92.5 292.5 92.5 292.2 92.8C273.7 122 252.3 150.8 234.2 178.2C228.3 186.9 222.7 195.9 217 204.8C219.6 199.8 222.2 195.1 224.8 190C226.8 186.3 228.7 182.4 230.9 178.7C231.1 178.4 231.3 178.2 231.1 177.9C231.1 177.4 230.4 177.4 230.2 177.9C218.8 198.9 206.2 220.6 194 241C193.7 241.1 193.4 241.3 193.2 241.4C193.6 240.8 193.9 240.2 194.2 239.5C203.1 223.4 211.9 207.1 220.4 190.8C222.4 186.8 224.5 182.9 226.7 179.2C226.9 178.7 226.3 178.1 226 178.7C216.6 194.2 205.7 212.4 197 226.4C193.9 231.1 191.1 235.9 188.1 240.9C189.6 238 191.2 235.4 192.7 232.5C199.9 219.3 206.6 205.9 214.1 193C216.3 189.3 218.9 185.6 220.9 181.9C220.9 181.1 220 180.8 219.8 181.4C211.1 195.1 203 209.3 195 222.5C191.5 228 187.8 233.6 184.3 239.4C185.4 237.3 186.5 235.4 187.6 233.3C191.3 226.4 195 219.9 198.3 213C198.5 212.7 198.5 212.2 198.3 211.9C198.1 211.4 197.2 211.4 197 211.9C186.8 231.1 175.4 249.6 164.3 268.3C160.6 274.6 157 281 153.3 287.5C153 287.9 152.7 288.3 152.4 288.7C161 272.6 169.7 256.5 178.5 240.6C181.8 234.8 185 228.7 188.3 222.9C188.5 222.4 188.7 222.1 188.7 221.6C188.5 220.8 187.6 220.5 187.2 221.3C177.4 237.6 167.6 254.2 158 270.8C165.2 256.8 172.6 242.9 179.8 228.9C180.9 226.8 182.4 224.2 183.1 222C183.1 221.5 182.4 220.9 182.2 221.7C172.6 240.1 162.6 258.1 152.3 276.2C152.7 275.4 153 274.9 153.4 274.1C160.6 259.6 167.6 245.1 175 230.9C176.3 228 177.8 225.1 178.9 221.9C179.1 221.1 178 220.6 177.6 221.4C165.8 246.4 152.8 270.4 139.9 294.6C141.9 290.6 143.8 286.7 145.8 282.7C153.4 266.9 161.3 251.6 169.1 235.8C170.4 232.9 171.9 230 173 227.1C173.2 226.6 173.4 226 173.2 225.5C173 225 172.1 225 171.9 225.8C169.9 231.6 166.2 237.7 163.4 243.2C158.8 251.6 154.2 260.1 149.7 268.5C140.6 285.7 131.3 302.8 122 320C121.3 320.5 120.6 320.9 119.9 321.4C126.4 308.9 132.8 296.2 138.8 283.3C146.2 268 154.1 253 161.9 238C163.9 234 166 230.1 167.8 225.9C168.2 225.4 167.1 224.8 166.7 225.6C154.9 250.6 141.6 274.6 128.1 298.6C129.4 296.2 130.5 293.6 131.8 291.2C139.2 276.2 146 260.6 153.6 245.9C156.2 240.9 159 235.6 161.9 230.6C162.3 229.8 162.8 228.8 163.2 228C163.2 227.7 163.2 227.7 163.2 227.5C163.2 227 162.5 227 162.3 227.2C146.2 258.8 128.7 289.1 111.5 319.9C117.2 308.8 123 297.8 128.7 286.7C133.7 276.7 138.3 266.1 143.5 256.4C147.4 248.8 152 241.1 155.9 233.5C156.1 233 156.6 232.7 156.3 232.2C156.3 231.9 155.6 231.7 155.6 232.2C143.6 254.3 131.4 275.9 119.2 297.8C119.6 297 120.1 296 120.5 295.2C125.7 283.9 131.4 272.5 137.5 261.7C137.9 260.6 138.8 259.9 139 258.8C138.8 258.3 138.1 258 137.9 258.5C129 274.8 119.8 289.1 111.3 304.6C112.2 303 112.8 301.2 113.5 299.6C115.5 295.4 117.4 291.4 119.2 287.2C119.6 286.4 118.5 285.4 117.9 286.4C113.1 297.5 107 306.7 101.3 316.2C102.2 314.4 103.3 312.5 104.1 310.4C107.7 303.8 111.5 296.9 114.7 289.8ZM337.8 170.9C336.5 172.5 335.3 174.2 334 175.8C334 175.3 333.8 174.9 333.5 174.4C334.9 173.2 336.3 172.1 337.8 170.9ZM246.5 183.6C244 187.4 241.5 191.2 239.1 195C241.3 191.1 243.9 187.3 246.5 183.6ZM149.8 296.4C157 286.4 164 276.4 171.6 266.9C174.9 262.7 178.1 258.7 181.4 254.8C183.8 251.9 184.7 250.6 187.5 248.7C193.6 245 198.6 243.2 205.4 240C208.9 238.4 212.4 236.6 215 233.4C217 231.1 218.9 228.7 220.7 226.2C221 226 221.4 225.9 221.7 225.7C224.9 221.1 227.9 216.3 230.9 211.6C232.3 209.5 233.8 207.3 235.2 205.2C245.4 190.2 255.5 175.2 266.6 161.2C268 159.4 269.7 157.6 271.1 156.2C271.1 156.2 271.1 156.2 271.2 156.2C273.2 154.9 275.1 154.1 276.9 154.1C276.9 154 277 154 277 153.9C279.6 154.1 282.7 155.3 285.2 157C294.6 162.5 309.2 168.3 321.4 173.1C324.2 173.9 329.5 176.3 330.8 176.5C330.8 176.5 330.8 176.5 331 176.5C331.2 177 331.7 177 332.3 177C327.2 183.4 322.1 189.8 316.9 196.1C318.6 193.3 320.2 190.6 321.8 187.8C323.1 185.7 324.4 183.3 325.5 180.9C325.5 181.2 325.9 180.6 325.7 180.1C325.5 179 324.4 179 324 179.8C320.5 185.6 316.8 191.4 312.9 197.2C314 195.6 314.9 193.8 316 192.2C316.4 191.1 317.5 190.4 317.3 189C317.1 188.2 316.2 187.9 315.8 188.7C311 196.6 306 204.5 300.8 212.7C303 209 305.2 205.3 307.3 201.9C310.4 196.6 313.6 191.6 316.5 186.4C317.4 185.6 316.3 184 315.6 185.1C309.3 195.4 302.1 206.2 295.1 216.7C296.6 214.1 298.2 211.4 299.7 208.8C303.8 201.4 308.2 193.8 312.3 186.1C313.2 184.3 314.3 182.7 315.1 180.8C315.1 180.5 315.3 180.3 315.1 180C314.9 179.2 314 179.2 313.8 179.7C306 192.6 298.3 204.7 290.7 217.1C295.5 208.4 300.5 199.4 305.3 190.8C307 187.6 308.8 184.7 310.3 181.3C310.5 180.5 309.4 180.2 309.2 180.8C304.2 190 298.5 199.2 292.9 208.2C296.8 200.8 300.5 193.7 304.4 186.3C306.1 182.9 308.1 179.4 309.8 175.8C310 175.3 309.4 174.7 308.9 175.3C299.7 192.2 289.9 208.5 280.1 224.6C282.9 219.6 285.5 214.6 288.2 209.8C291.3 204.3 294.1 198.7 296.9 193.2C297.3 191.9 298.6 190.3 298.9 189C298.7 188.5 298 188.2 297.8 188.7C289.4 202.2 281.7 214.3 273.9 227C273.6 227 273.2 227 272.9 227.1C273.4 226.2 273.9 225.2 274.4 224.3C282 210.9 289.2 196.9 296.6 183.5C297.9 181.1 299.2 178.8 300.5 176.6C301.4 175.8 300.5 175 300.1 175.5C290.3 189.7 279 208.7 271.3 220.8C270 222.8 268.7 225 267.4 227.2C267 227.2 266.7 227.2 266.3 227.2C267.4 225.2 268.6 223.4 269.7 221.6C275.8 210.8 281.7 200 288 189.5C288.2 188.7 289.1 188.2 288.9 187.4C288.7 186.9 288 186.6 287.8 187.1C279.7 201.1 271.3 214.3 263.2 227.3C262.9 227.3 262.6 227.3 262.3 227.3C268.9 216.2 275.3 204.8 281.7 193.5C283.4 190.1 285.4 186.9 287.1 183.5C287.3 183 286.7 182.4 286.4 183C276.6 199 268.3 211.4 258.3 226.1C262.7 219.1 267 211.6 269.8 205.6C270 204.8 270.7 204.3 270.5 203.2C270.3 202.1 269 201.9 268.5 202.9C264.1 209.5 258.3 218.2 252.2 227.1C252.2 227.1 252.2 227.1 252.1 227.1C253.2 225.3 254.3 223.6 255.3 221.6C263.6 207.9 270.6 195.5 278.8 182.1C281.2 177.9 283.8 173.9 286 169.5C286.2 169 285.3 168.2 285.1 169C273.3 188.8 260.7 206.4 250 223.8C249.2 225.1 248.4 226.3 247.5 227.6C247.1 227.7 246.7 227.7 246.3 227.8C246.2 227.8 246.1 227.9 246 227.9L246.1 227.8C254.2 215.2 263.8 200.4 272.5 185.1C274.7 181.4 276.9 177.5 279 173.8C279.2 173.5 279 173 278.8 173C278.6 172.7 278.1 173 278.1 173.3C271.3 183.6 265 193.6 257.8 203.9C254.7 208.4 251.7 212.6 248.6 216.8C256.7 204.2 264.3 191.8 272.1 178.1C274.9 173.1 278.2 167.8 281 162.6C281.2 162.1 280.6 161.8 280.3 162.1C270.5 178.4 260 193.7 249.4 209.3C256.4 197.7 262.9 185.8 269.9 174.5C273 169.5 276 164.8 279.1 159.7C279.3 159.4 279.1 158.9 278.9 158.6C278.7 158.3 278.2 158.6 278 158.9C266.5 178.7 252.9 197.4 241.2 215C236.8 221.6 232.5 228.2 228.1 234.8C234.2 225.1 240.5 214.8 245.3 207.1C251.6 196.8 257.5 186 264 176C266.4 172 268.8 168.4 271.6 164.4C272.9 162.6 274.2 160.7 275.3 158.9C275.5 158.6 275.5 158.1 275.1 157.8C274.9 157.8 274.7 157.8 274.4 158.1C259.6 181 244.3 200.8 229.5 223.4C228.2 225.5 226.9 227.4 225.6 229.5C233.7 216.1 241.7 202.9 250 190.2C256.5 180.2 263.5 170.4 270.3 160.7C271.2 159.4 272 158.3 272.7 157C272.7 156.5 272.3 156.2 271.8 156.7C259.8 173.8 247.2 190.4 235.6 208.1C223 226.5 211.2 245.8 199.6 265C201.1 262.1 202.4 258.9 204 256C206.6 250.7 209 246.3 211.6 241.2C211.8 240.9 211.4 240.4 211.2 240.9C204.4 250.4 198.8 259.3 192.9 269.1C195.3 264.6 197.7 260.1 200.3 255.4C202.3 251.7 204 248.3 206 244.6C206.2 244.3 206.4 244.1 206.4 243.5C206.4 243.2 206 243 205.7 243.5C201.6 250.6 197.4 257.2 193.3 263.3C194.2 261.7 194.8 260.1 195.7 258.8C198.1 254.3 200.3 249.8 202.7 245.1C202.9 244.8 202.5 244.6 202.3 244.8C194.9 257.2 188.3 268.4 181.4 279.6C181.2 279.7 181.1 279.8 180.9 280C186.1 270.7 191.6 261.7 196.7 252.2C197.6 250.6 198.4 249.3 199.1 247.7C199.1 247.4 198.7 247.2 198.7 247.4C193.7 256.4 187.6 265.6 181.9 274.5C183 272.4 184.3 270.5 185.4 268.4C189.1 262.1 192.6 255.8 195.9 249.2C196.1 248.7 195.5 248.4 195.2 248.7C190 258.4 184.3 267.4 178.6 275.8C180.6 272.4 182.5 268.7 184.5 265.3C187.1 260.6 189.7 255.6 192.3 250.5C192.5 250 191.9 249.2 191.4 250C186.8 257.9 182.2 265.8 177.5 274C179 271.1 180.3 267.9 181.9 265C183.9 261.3 185.6 257.4 187.6 253.7C187.8 253.4 188 253.2 188 252.6C188 252.1 187.3 252.1 187.1 252.6C183.6 259.2 179.5 266.6 175.1 273.4C175.3 272.9 175.8 272.1 176 271.6C178.4 266.6 180.6 261.6 183.2 256.8C183.4 256.5 183 256 182.8 256.3C177.1 265.3 172.3 274 167.1 282.4C168.8 279 170.6 275.8 172.3 272.4C173.6 269.8 175.1 267.1 176.4 264.5C176.4 264 175.7 263.4 175.5 264.2C171.4 271.8 165.3 282.1 161.6 287.6C160.7 288.9 159.9 290.2 159 291.6C161.6 287.4 164 282.6 166.2 277.9C167.1 276.3 167.9 274.5 168.6 272.9C168.6 272.4 168.2 272.1 167.9 272.6C164.6 278.4 161.1 283.7 157.4 288.9C158.1 287.6 158.7 286.5 159.4 285.2C159.6 284.4 158.5 283.9 158.1 284.7C154.7 290.3 149.1 297.4 144 303.1C146.3 301.1 148 298.8 149.8 296.4Z" fill="#1C2327"/>
<path d="M637.7 320.4C623.3 305.6 608.9 290.6 595.4 274.8C588.9 266.9 580.8 258.2 575.4 250.6C575.2 250.3 575.2 250.3 575 250.1C574.8 249.8 574.8 249.6 574.3 249.6C573.9 249.6 573.4 250.4 573.9 250.7C591.3 271.5 610.1 295.2 628.6 316.3C635.3 324.2 642.8 332.6 650.7 340.1H662.9C653.3 331.4 644.8 323 634.5 313.1C625.3 303.9 616.6 294.1 608.1 284.1C606.1 281.7 604.2 279.4 602.2 277.2C601.8 276.9 601.3 277.7 601.8 278C617.7 297.2 634.3 315.9 651.5 333.9C652.1 334.5 652.7 335.2 653.4 335.9C648.5 331.2 643.6 326.3 637.7 320.4Z" fill="#1C2327"/>
<path d="M564.9 317.2C564.7 317.2 564.5 317.7 564.7 318C571.1 325.3 577 333.1 583.7 340H587.2C585.6 338.6 584.2 337.4 583 336.2C576.9 330.7 571.5 324.9 566 318.5C565.6 318.3 565.4 317.5 564.9 317.2Z" fill="#1C2327"/>
<path d="M593.7 333.3C593.5 333.3 593.3 333.6 593.5 333.8C595.5 336 597.6 338.1 599.9 340H602C599.2 337.9 596.7 335.9 594.1 333.6C593.9 333.3 593.9 333.3 593.7 333.3Z" fill="#1C2327"/>
<path d="M365.3 209.2C369.7 203.4 374 197.6 378.2 191.5C378.6 190.7 379.5 189.9 379.7 188.9C379.9 188.1 378.8 187.3 378.4 188.1C359.9 213.7 340 238.2 321.5 263.7C303.5 288.7 285.1 314.3 267.1 340H292C300.1 330.2 308.2 320.2 315.8 309.9C328.4 293 338.5 277.2 349.8 260.1C353.3 254.8 356.8 249.8 360.3 244.8C361.4 243.5 362.3 241.9 363.1 240.6C363.1 240.3 363.3 240.3 363.1 240.1C362.9 239.6 362.2 239.3 362 239.8C342.6 268 322.1 295.1 300.8 321.5C301.9 319.9 303.2 318.3 304.3 317C324.3 289.9 343.7 262.2 363.4 234.8C371.2 224 378.9 212.7 386.7 201.6C387.1 200.8 388 200 388.2 199C388.2 198.5 387.5 197.9 387.3 198.5C375.1 214.8 362.9 231.2 350.9 247.8C332.2 272.6 313.4 297.3 294.5 321.8C293.6 322.9 293 323.9 292.1 324.7C295.8 319.4 299.7 314.2 303.6 308.9C325.6 279.7 347.4 250.4 368.8 220.4C373.2 214.3 377.5 208.3 382.1 202.5C384.3 199.6 386.7 196.7 388.6 193.8C389 193 387.9 192 387.3 192.7C369.2 215.9 351.1 239.1 333.3 262.5C330.7 265.7 328.1 269.1 325.7 272.2C329.2 267.5 332.7 263 335.9 258.2C343.7 246.9 352.5 235.3 361.4 223.2C369.7 212.1 377.7 201.1 385.6 189.7C386 188.9 386.9 188.4 387.1 187.3C387.1 186.8 386.4 186.2 386 186.8C371 208.7 354.4 228.4 337.6 248.2C323.9 265.3 310.6 283.2 297.9 301.4C293.3 308 288.7 314.3 284.2 320.6C296.4 303.2 308.6 285.8 321 268.7C335.7 248.7 350.5 229 365.3 209.2Z" fill="#1C2327"/>
<path d="M554.7 310.4C554.5 310.1 554 310.7 554.3 310.9C561.8 321 569.9 330.8 578.4 340H580.7C574.2 333.5 568 326.5 561.9 319.3C559.5 316.4 557.1 313.3 554.7 310.4Z" fill="#1C2327"/>
<path d="M579.1 325.9C578.2 325.1 577.4 323.5 576.3 323C575.9 323 575.4 323.8 575.9 324.1C581.5 329.6 586.6 335 591.8 340H595.4C592.5 337.9 589.7 335.6 587 333.3C584.5 331.2 581.7 328.6 579.1 325.9Z" fill="#1C2327"/>
<path d="M401.7 307.2C401.9 306.1 400.6 305.4 400 306.1C391.6 317 383.7 328.3 376 339.9H386.6C390.5 333.9 394.7 327.4 398 322.1C400 318.9 401.3 317.4 403.2 313.9C403.6 312.8 402.3 311.8 401.7 312.8C396.7 319.4 391.5 326 386.4 332.6C389.7 327.6 392.7 322.6 395.8 317.3C397.8 314.1 400 310.9 401.7 307.2Z" fill="#1C2327"/>
<path d="M389.1 288.5C389.3 288.2 388.9 287.7 388.7 288C377.8 303.5 366 319.9 355.4 336C360.8 326.8 366.1 317.8 371.7 308.6C376.7 300.7 381.3 292.3 386.3 284.4C386.5 284.1 386.7 283.9 387 283.3C387 283 386.6 282.8 386.6 283C378.5 295.1 371.6 306.7 363.5 318.3C358.3 325.6 353.3 332.8 348.3 340H363.4C365.8 336.4 368.1 332.7 370.4 329.1C376.3 319.4 383.5 308 389.6 298C390.5 296.4 391.3 295.1 392.2 293.5C392.4 293.2 392 292.7 391.8 293C382 305.9 372.6 319.1 363.3 332.3C369.2 322.6 375.1 312.5 381 302.5C383.6 297.7 386.2 293.3 389.1 288.5Z" fill="#1C2327"/>
<path d="M396 299.1C396.2 298.6 396.7 298.3 396.7 297.8C396.7 297.3 396 296.7 395.6 297.3C385.5 311.6 375.2 325.8 365 340.1H374.7C379.8 332.3 384.9 324.5 390.3 315.5C392.7 311.3 395.7 306.8 398.4 302.1C398.8 301.3 397.7 300.5 397.3 301.3C390.8 311.8 382 322.4 374.4 332.9C374.1 333.2 373.9 333.5 373.6 333.9C376.9 328.6 380.2 323.4 383.7 317.9C386.8 313.2 390.9 306.8 394.4 301.3C394.2 301.6 394.6 301 394.8 300.8C395.4 300.1 395.6 299.6 396 299.1Z" fill="#1C2327"/>
<path d="M354.6 181.3C358.1 176.6 361.4 172.1 364.8 167.3C365.7 166.2 366.3 165.2 367.2 164.1C367.2 164.1 367.4 163.8 367.4 163.6C367.4 163.1 366.7 162.5 366.3 163.1C346 190.5 326 218.2 304.8 244.8C283.2 272.7 261.9 301.2 240.1 329.1C237.3 332.7 234.4 336.4 231.5 340H238C241.4 335.8 244.8 331.5 248.1 327.2C245 331.5 241.7 335.7 238.5 340H244.7C259 320.9 273.4 301.8 287.5 282.5C307.3 255.4 327.2 228.5 346.3 200.8C353.1 191.1 360.2 181.3 366.8 171C367.5 169.9 368.1 168.9 368.8 167.8C368.8 167.5 368.8 167.5 368.8 167.3C368.8 166.8 368.1 166.8 367.9 167C348.7 196.8 326.7 223.6 305.1 251.1C310.8 243.2 316.4 235 322.1 227.1C333.5 211.8 343.5 196.3 354.6 181.3Z" fill="#1C2327"/>
<path d="M94.9002 291.7C86.0002 308.1 76.5002 324 67.2002 340H70.8002C75.2002 331.9 79.6002 323.7 83.8002 315.9C87.5002 309 91.0002 302.5 94.7002 295.6C95.1002 294.5 96.0002 293.2 96.2002 291.9C96.0002 291.4 95.3002 291.1 94.9002 291.7Z" fill="#1C2327"/>
<path d="M73.0996 293.3C64.9996 308.8 55.8996 323.3 47.1996 338.1C46.7996 338.8 46.3996 339.4 46.0996 340.1H50.1996C54.9996 331.3 59.6996 322.5 64.4996 313.6C67.5996 307.5 70.7996 301.5 73.6996 295.4C73.8996 294.9 74.3996 294.1 74.3996 293.6C73.9996 293 73.2996 292.7 73.0996 293.3Z" fill="#1C2327"/>
<path d="M82.3004 294.6C73.7004 309.9 64.8004 325 55.9004 340H60.0004C61.7004 337 63.4004 334.1 65.1004 331.2C70.3004 322.2 75.1004 313 79.9004 303.8C81.2004 300.9 82.9004 298.3 84.0004 295.4C84.2004 294.3 82.7004 293.8 82.3004 294.6Z" fill="#1C2327"/>
<path d="M78.1 292.7C69.7 308.8 60.6 324.4 51.5 340H55.3C56.5 337.8 57.8 335.5 59 333.3C64.7 323 70.3 312.7 76 302.2C77.3 299.6 78.8 296.9 79.9 294.3C80.1 293.8 80.3 293.5 80.1 293C79.9 291.9 78.5 291.7 78.1 292.7Z" fill="#1C2327"/>
<path d="M89.1998 291.9C80.1998 308.1 70.5998 323.9 61.2998 340H65.3998C69.7998 332.2 74.1998 324.4 78.2998 316.7C82.1998 309.6 85.8998 302.5 89.5998 295.1C89.9998 294 90.8998 293.3 90.6998 292.2C90.4998 291.4 89.3998 291.2 89.1998 291.9Z" fill="#1C2327"/>
<path d="M106 293.3C97.5 309 88.5 324.5 79.5 340H83.5C89.9 327.4 95.9 316.2 102.1 303.8C103.8 300.4 105.6 297.2 106.9 293.5C106.9 293 106.2 292.7 106 293.3Z" fill="#1C2327"/>
<path d="M656.2 312.8C651.6 307.8 647.3 302.5 642.7 297.5C642.5 297 641.8 297.8 642.3 298C653.6 310.4 664.3 324.6 676.1 337.5C677 338.3 677.9 339.2 678.7 340H685.7C682.1 337.1 678.7 334.2 676.5 332C669.5 325.7 663.2 319.9 656.2 312.8Z" fill="#1C2327"/>
<path d="M659.7 310.1C659.3 309.8 658.8 310.6 659.3 310.9C666.3 318.3 673.5 325.4 680.7 332.8C683.1 335.2 685.4 337.6 687.7 340H691C690.6 339.7 690.3 339.4 689.9 339.1C684.5 334.6 677.7 328.6 672 323C669.2 320.1 666.3 317.2 663.5 314.3C662.1 313 661 311.4 659.7 310.1Z" fill="#1C2327"/>
<path d="M641.2 314.9C641 314.9 641 315.4 641.2 315.4C649.1 324.2 657.5 332.1 665.8 340H667.8C661.1 334.2 654.6 327.8 648.2 321.5C646 319.4 643.6 317.3 641.7 314.9C641.6 314.9 641.4 314.6 641.2 314.9Z" fill="#1C2327"/>
<path d="M41.4996 319.1C37.2996 326.7 33.1996 333.4 29.0996 340H32.4996C34.5996 336.2 36.5996 332.4 38.4996 328.8C39.9996 325.6 41.7996 322.7 43.0996 319.6C43.1996 318.6 41.8996 318 41.4996 319.1Z" fill="#1C2327"/>
<path d="M26.2002 326.7C23.6002 330.8 20.4002 335.3 17.2002 340H20.5002C22.1002 337.2 23.8002 334.4 25.5002 331.5C26.2002 330.4 26.8002 329.1 27.7002 328.1C27.9002 327.8 27.9002 327.6 27.7002 327.3C27.6002 326.5 26.7002 326.2 26.2002 326.7Z" fill="#1C2327"/>
<path d="M33.1998 320.9C29.1998 327.1 24.9998 333.5 20.7998 340H24.5998C25.9998 337.5 27.3998 335.1 28.5998 332.8C30.5998 329.1 32.6998 325.2 34.6998 321.5C34.9998 320.4 33.6998 319.9 33.1998 320.9Z" fill="#1C2327"/>
<path d="M37.6 320.7C33.4 327.3 29.2 333.8 25 340H28.9C30.8 336.7 32.7 333.3 34.5 330.1C36 327.2 38 324.6 39.3 321.7C39.5 320.7 38.2 319.9 37.6 320.7Z" fill="#1C2327"/>
<path d="M11.3 340C13.6 337.3 15.9 334.6 18.2 332C23 326.7 29.3 319.1 33 317.2C36.3 315.9 40.6 317.2 44.3 317.7C45.6 318 47.1 318.2 48.4 318.2C49.5 318.2 50.4 317.7 51.2 316.9C55.1 312.7 58.8 306.1 62.7 300.3C65.7 295.6 71.6 286.3 74 284C75.7 282.4 85.5 285.3 92.5 285.6C98.2 286.1 104 286.1 109.7 285.6C111.4 285.3 113.4 285.3 115.1 284.5C116.6 284 117.7 282.7 119 281.6C124.4 275 129 267.4 134 260.3C141.6 249.2 149 238.2 156.9 227.6C159.5 224.2 160.2 224.2 164.5 223.4C165.8 223.1 166.7 223.1 167.1 222.9C167.3 222.9 167.5 222.6 167.5 222.6C170.8 221.8 174.7 220.8 178.4 219.7C181.7 218.6 185.2 217.9 188.2 216C193.9 212.3 198.2 206.3 202.1 200.2C205.6 194.7 208.6 189.9 213 184.1C213.8 182.9 214.7 181.6 215.7 180.4C216.2 179.9 217.8 178.9 218.3 178.6C221.1 177.3 224.2 176.5 227.2 175.4C228.1 175.1 228.9 174.9 229.6 174.3C229.8 174.3 229.8 174 230 173.8C238.7 167.7 244.2 156.9 250.7 148C261.6 131.9 273.1 116.1 284.5 100.3C288 95.6 293 88.4 295.6 85.5C298.9 83.7 305.2 82.9 310.2 81C310.6 81.3 311.1 81.3 311.5 81C320 74.7 326.5 65.2 333.5 56.5C342.6 45.1 353.3 31.6 362.3 20C367.3 32.9 373.6 44.9 379.9 57C387.1 69.9 393.6 84.4 400.8 98.4C403 102.6 405.2 106.8 407.6 111C407.8 111.5 408.9 111 408.5 110.5C399.3 95 391.7 77.8 384.3 61C379.5 48.9 373.4 34.1 367.7 21C369.9 25.2 371.8 29.4 373.8 33.6C380.8 47.8 387.1 62.6 394.3 76.5C396 79.7 397.6 83.1 399.3 86.2C399.7 86.7 400.4 85.9 400.2 85.4C394.1 74.6 389.5 63 384.3 51.7C379.5 40.9 375.1 29.6 370.6 18.5C371.7 20.3 372.6 22.5 373.9 24.6C378.7 34.3 383.7 43.8 388.5 53.6C389.8 56.2 391.1 59.1 392.6 61.5C392.8 61.8 393.5 61.2 393.3 61C387 49.1 381.5 36.5 376.3 23.8C376.1 23.3 375.9 22.7 375.6 22.2C383 36.2 390.6 51.2 398.3 65.9C403.1 74.9 408.1 83.8 413.1 92.5C413.5 93 413.8 93.8 414.2 94.3C414.4 94.6 414.9 94.3 414.6 94C402.8 74.2 393.2 53.2 383.7 31.8C381.5 26.6 379.6 22.2 377.6 17.8C378.8 18.6 379.9 19.5 381.1 20.4C382.5 22.9 383.9 25.4 385.3 27.9C391.4 39.2 397.3 50.6 403 61.9C404.3 64.5 405.6 67.4 407.1 69.8C407.5 70.1 408 69.5 407.8 69.3C400.6 56.1 394.1 42.2 388 28.2C387.6 27.1 387.1 26.1 386.7 25C388.9 28.7 391.1 32.6 393.2 36.6C398.9 46.9 404.7 57.2 410 68C411.1 70.1 412 72.2 413 74.1C413.4 74.6 413.9 74.4 413.7 73.8C407.8 60.6 400.4 48.2 394.3 35.1C393.5 33.3 392.6 31.5 391.8 29.7C394.3 33 396.9 38.4 399.8 43.8C403.1 50.4 406.8 56.7 410.7 63C411.4 64.3 412.1 65.4 412.8 66.5C412.6 66.9 412.6 67.4 412.9 67.7C414.6 71.4 417 74.8 419 78.2C422.9 84.8 426.8 91.4 430.8 98C439.7 113 448.5 127.5 457.4 143.1C459.6 146.8 462 150.7 463.9 154.4C464.8 156 465.4 157.8 466.5 158.9C466.9 159.4 467.2 158.9 466.9 158.6C454.9 139.1 444.9 118.8 434.2 98.8C439.2 107.2 444.4 115.9 449.7 124.4C451.9 128.4 454.1 132.3 456.2 136.5C456.6 137.3 457.1 138.6 457.7 139.1C458.1 139.4 458.4 138.6 458.1 138.3C447.5 119.8 436.8 97.2 426.6 80.2C427.6 80.7 428.6 81.1 429.6 81.6C429.9 82.5 430.4 83.3 430.8 84.3C433 88.3 435.6 92.7 437.8 96.4C442.2 103.5 445.6 110.9 449.6 118C449.8 118.3 450 118.8 450.3 119.1C451 119.1 451.2 118.6 451 118.3C446.6 110.9 442.5 103.3 439 95.6C436.9 91 434.8 86.7 432.3 82.6C433.2 82.9 434.1 83.3 435.1 83.6C434.7 83.6 434.3 83.5 434 83.4C433.8 83.4 433.8 83.4 433.6 83.1C436 87.1 438.6 90.5 441.4 95C442.1 96.1 442.5 97.4 443.4 98.2C443.8 97.9 444.1 97.7 443.8 97.4C441.4 93.2 439.5 88.6 437.3 84.4C440.1 85.4 443.4 86.6 444.9 87.4C447.1 89.8 450.6 97.1 453.6 102.7C455.4 106.3 457.2 109.9 459.1 113.5C459.1 113.6 459 113.7 459 113.8C459 114.3 459 114.6 459.2 115.1C460.3 117.5 461.6 119.6 462.9 121.7C471.4 136.2 479.7 149.9 488.2 163.9C491.9 169.7 495.4 175.8 499.1 181.6C499.3 181.9 499.3 182.1 499.8 182.4C500.2 182.1 500.2 181.9 500 181.6C487.8 162.5 478 141.7 466.6 122.2C467 122.2 467.5 122.2 468.2 122.3C468.9 122.3 469.3 122.6 469.9 122.6C469.9 122.6 469.9 122.6 470.1 122.6C470.5 122.6 470.8 122.9 471.2 122.9C472.7 124 475.6 129.2 477.7 133.2C482.3 140.8 486.9 148.5 491.4 156.4C497.7 167.2 504.3 178 510.8 188.8C519.3 203.3 527.6 217.8 536.1 232C538.1 235.2 540.2 238.9 541.8 241C542 241.3 542.5 241.8 542.7 242.3C544.2 245.2 546.4 246.8 550.5 244.4C559.4 240.4 563.4 237.3 572.3 234.1C574.7 233.6 574.9 233.6 577.7 235.7C590.3 246.5 604.5 266.3 620.2 280C624.3 283.7 628.7 287.1 633.5 289.7C637 291.8 641.3 292.6 644.6 289.7C647.9 287.6 653.8 283.1 654.8 283.1C657.9 283.1 662.4 286.5 666.6 290C672 294.7 679 302.4 685.1 308.7C692.5 316.6 700.1 324.2 707.5 331.9C710.3 334.5 713 337.3 715.7 339.9H719.2C719.1 339.8 718.9 339.6 718.8 339.5C706.6 327.9 695 315.5 683.3 303.4C676.8 296.5 670.2 289.2 662.8 283.6C659.5 281.2 655.4 278.3 651.5 279.9C646.7 282.3 640.8 287.8 638.2 287.8C635.4 287.8 633.2 286.5 629.7 284.1C621.6 278.3 616.2 273 609.2 265.7C600 256 591.8 247.8 582.4 237.5C579.3 234.3 576.1 229.3 571.5 230.4C565 231.7 559.1 235.9 553 238.6C551.3 239.4 547.1 241.8 545.4 241.8L545.2 241.5C545 241.2 544.8 241.2 544.8 241C544.4 240.2 544.4 240.5 543.7 239.2C543.8 239.3 543.8 239.3 543.7 239.2C543.7 239.2 543.7 239 543.6 239C542.5 237.2 541.3 235.2 539.6 232.7C529.1 215.8 519.6 198.2 508.9 181.6C501.3 170.3 491.9 154.7 482.7 139.4C479.2 133.6 477.3 128.9 474.2 123.3C474 123 472.9 121.2 471.4 120.1C469.4 119 467.3 118.5 465.3 118.8C465.1 118.5 464.9 118.3 464.6 118C463.1 115.4 462.2 114 461.3 112.7C460.2 110.6 459.1 108.5 458 106.6C454.3 99.7 451 92.4 446.7 86C445.4 84.2 443.4 83.6 441.7 82.8C437.3 81.2 433.2 79.6 428.8 77.8C426.8 76.7 423.4 75.2 420.7 72.8C418.7 70.7 415.3 66 413.9 63.6C407.6 53.6 402.1 43 396.7 32.5C392.3 24.6 386.9 21.4 380.4 16.4C377.6 14.3 374.5 12.2 371.5 10.3C371.1 10 370.8 9.8 370.4 9.5C370.4 9.2 370.2 9 370 8.7C368.9 7.9 369.3 8.2 368.3 8.2C366.6 8.5 366.3 9 365.7 9.5C362.4 13.5 359.4 17.4 356.3 21.6C345.8 35.3 335.2 48.7 324.3 61.9C320.4 66.6 316.7 71.4 312.3 75.3C311.6 75.8 312.1 75.6 310.6 76.9C309.5 76.9 308.6 77.7 307.5 77.7C304.2 78.8 301 79.5 297.7 80.3C296.2 80.8 294.6 81.1 293.3 82.1C291.3 83.7 290 86.1 288.3 88.2C275.4 106.4 262.6 124.8 249.7 143C244 150.9 238.6 159.6 232.3 166.7C229.9 169.3 229.2 169.6 227.5 171.2C227.3 171.2 226.8 171.5 226.6 171.5C225.1 172 223.3 172.6 221.8 173.1C217.7 174.4 213.3 176.3 210.9 180.5C206.1 187.4 201.5 195 195.2 204C190.2 210.3 187.4 213 180.8 215.1C175.1 216.9 169.3 218.5 163.4 219.8C163.2 219.8 163 219.8 162.7 220.1C160.3 220.6 157.9 221.2 156.2 223C144.9 237.2 135.3 253.6 124.6 268.6C121.5 273.1 116.3 280.5 114.4 281.5C107.6 283.3 96.7 282.8 88.5 282C83.7 281.7 80.4 280.2 75.2 280.4C71.1 280.9 70.4 284.6 67.1 288.8C62.1 296.4 57.3 304.3 51.4 312.5C49.4 315.1 49 315.1 48.3 315.1C46.3 315.1 37.6 312.5 32.4 313.8C28.9 315.1 26.3 318.3 23.5 321.2C18 327.1 12.8 333.4 7.5 339.7H11.3V340ZM423.9 78.9C423.7 79.1 423.5 79.4 423.5 79.9C423.1 79.2 422.6 78.5 422.2 77.8C422.8 78.1 423.3 78.5 423.9 78.9Z" fill="#1C2327"/>
<path d="M668.7 309.1C668.5 308.8 668 309.4 668.5 309.6C679.5 319.2 690 330.1 700.3 340H704C703.6 339.7 703.3 339.4 702.9 339.1C695.7 333 688.1 327.2 681.3 320.7C677.2 316.7 673 312.8 668.7 309.1Z" fill="#1C2327"/>
<path d="M49.8 323C46.2 328.6 42.6 334.3 39 340H41.8C44.3 335.4 46.8 330.8 49.4 326.2C49.8 325.4 50.9 324.1 50.9 323.3C50.7 322.8 50 322.5 49.8 323Z" fill="#1C2327"/>
<path d="M44.7998 323.3C41.0998 329.2 37.5998 334.6 34.2998 340H36.9998C39.1998 336.2 41.2998 332.3 43.4998 328.6C44.3998 327 45.1998 325.7 46.0998 324.1C46.0998 323.8 46.2998 323.6 46.0998 323.6C45.8998 322.8 44.9998 322.8 44.7998 323.3Z" fill="#1C2327"/>
<path d="M55.4004 318.3C51.2004 325.5 46.8004 332.8 42.4004 340H45.3004C47.4004 336.2 49.4004 332.5 51.5004 328.8C53.2004 325.4 55.4004 322.2 56.9004 318.8C57.2004 317.8 55.9004 317.2 55.4004 318.3Z" fill="#1C2327"/>
<path d="M618.5 321.5C614.1 316.8 609.8 311.8 605.6 306.7C605.4 306.4 605.4 306.2 605.2 306.2C605 306.2 605 306.5 605 306.7C614.9 318.5 623.7 329.8 632.5 340H636.7C630.8 334.2 624.6 328.1 618.5 321.5Z" fill="#1C2327"/>
<path d="M168.5 304.1C157.5 316.1 146.5 328.1 135.3 340H139.6C146.4 331.7 153 323.3 159.9 315.1C162.7 311.7 165.8 308.5 168.6 305.4C168.8 305.1 169.3 304.9 169.3 304.6C169.4 304.1 169 303.8 168.5 304.1Z" fill="#1C2327"/>
<path d="M685.9 319.6C685.5 319.6 685.2 320.4 685.7 320.7C692.6 326.5 699.8 333.3 707.1 340H709.8C703.5 335.2 697.4 330.3 691.6 324.9C689.6 323.3 687.8 321.2 685.9 319.6Z" fill="#1C2327"/>
<path d="M162.9 305.6C152.3 316.9 141.9 328.4 131.5 340H135.4C138.1 336.7 140.8 333.2 143.6 329.9C149.7 322.5 155.4 314.9 161.7 308C162.4 307.2 163 306.7 163.4 305.9V305.6C163.3 305.4 162.9 305.4 162.9 305.6Z" fill="#1C2327"/>
<path d="M144.4 317.2C137.5 324.7 130.8 332.3 124 340H125.9C130.1 335.1 134.4 330.2 138.7 325.4C140.9 323 143.1 320.4 145 317.8C145.2 317.2 144.6 316.7 144.4 317.2Z" fill="#1C2327"/>
<path d="M138.9 319.3C132.8 326.4 126.6 333.2 120.3 340H122.9C124.7 337.9 126.4 335.9 128.2 333.8C131.7 329.6 135.4 325.6 138.7 321.4C139.1 320.9 139.6 320.3 139.8 319.8C139.8 319.3 139.3 319.1 138.9 319.3Z" fill="#1C2327"/>
<path d="M364 312C369 303.3 374 294.9 378.8 285.9C379.2 284.8 380.1 283.8 380.1 283.3C380.1 283 379.9 283.3 379.9 283.3C370.1 299.9 359.6 314.4 349.6 329.4C347.4 332.7 345.1 336.3 342.7 340H347.7C353.3 330.5 359 321 364 312Z" fill="#1C2327"/>
<path d="M364 301.7C368.8 294.1 373.4 285.9 377.9 278.2C378.1 277.9 378.3 277.7 378.3 277.4C378.3 277.1 377.9 276.9 377.6 277.1C368 292.6 357.6 307.4 348.2 320.8C344.9 325.8 341 331.6 336.9 337.9C346.7 322.1 355.9 305.5 365.4 289.7C368.7 284.2 372.2 278.6 375.4 273.4C375.6 273.1 375.6 272.9 375.4 272.6C375.2 272.3 375 272.3 374.7 272.6C364.2 289.5 353.1 304.5 343.1 318.7C339.3 324.5 334.1 332.8 329.5 339.9H341.1C349.1 327.5 356.4 314.5 364 301.7Z" fill="#1C2327"/>
<path d="M364.2 158.1C352.2 174.7 339.8 191 327.4 207.1C316.3 221.6 305.2 236.3 293.6 250.6C291.2 253.5 288.8 256.4 286.4 259.3C294.2 249.3 302.1 239 309.7 228.7C320.4 214.2 330.6 199.2 341.1 184.7C347.6 175.5 354.4 166.5 361.4 157.3C361.6 156.8 362.3 156.5 362.3 156C362.3 155.5 361.6 155.2 361.4 155.5C354.2 165.8 346.6 175.3 339.2 185.3C329.6 198.5 320.2 211.6 310 224C292.6 244.6 275.8 265.6 258.6 286.4C243.6 303.9 229 321.8 214.6 340H221.2C223.6 337 225.9 334.1 228.3 331.2C235.7 322 243.3 312.8 251 303.8C241.5 315.8 232.1 327.9 222.9 340H229.3C238.5 328 247.8 315.9 257.1 304.1C270.4 287.2 283.9 270.9 296.8 253.5C310.3 235.6 323.2 217.1 336.2 199C345.4 186.6 354.3 174 363.2 161.6C363.9 160.5 364.7 159.8 365.2 158.7C365.3 158.1 364.4 157.8 364.2 158.1Z" fill="#1C2327"/>
<path d="M272.5 236.1C247.4 265.9 220.4 293.3 195.8 323.6C191.4 328.9 186.8 334.5 182.3 340H188.2C200.9 323.7 213.7 307.7 226.5 291.7C238.7 277.2 250.9 263 263.1 248.8C266.4 245.1 269.9 241.4 273.1 237.7C273.3 237.4 273.8 236.9 273.5 236.4C273.4 235.8 272.7 235.6 272.5 236.1Z" fill="#1C2327"/>
<path d="M153.1 311.2C144.6 321.1 135.9 330.6 127.1 340H129.7C132.1 337.2 134.5 334.4 136.9 331.7C142.3 325.4 147.6 319.3 153 313C153.2 312.5 153.9 312.2 153.9 311.7C153.9 311.2 153.3 310.9 153.1 311.2Z" fill="#1C2327"/>
<path d="M131.7 324.1C126.6 329.4 121.6 334.7 116.4 340H119.7C120.9 338.7 122 337.5 123.1 336.2C126.4 332.5 129.4 328.8 132.5 325.1C133 324.6 132.4 323.6 131.7 324.1Z" fill="#1C2327"/>
<path d="M658.6 328C658.4 328 658.2 328.3 658.4 328.5C662.4 332.5 666.4 336.3 670.5 339.9H672C670.3 338.5 668.6 337 667.1 335.6C664.3 333 661.5 330.4 658.6 328Z" fill="#1C2327"/>
<path d="M348.8 308.3C354.9 298 360.8 288.3 367.3 278.3C369 275.4 371 272.5 372.7 269.6C372.9 269.1 372.5 268.5 372 269.1C361.8 284.6 349.3 302.3 339.3 315.7C333.8 323.7 328.3 331.8 322.8 340H328.8C335.9 329.2 343.1 318.4 348.8 308.3Z" fill="#1C2327"/>
<path d="M700.5 330.7C704 333.9 707.6 337 711.2 340H711.9C708 337 704.4 333.7 700.7 330.1C700.5 329.9 700 330.4 700.5 330.7Z" fill="#1C2327"/>
<path d="M688.7 334.1C688.3 333.8 688 334.6 688.3 334.9C690.4 336.6 692.4 338.3 694.3 340H695.7L695.6 339.9C693.1 338.1 690.9 336.2 688.7 334.1Z" fill="#1C2327"/>
<path d="M124.3 328.3C120.8 332.3 117.2 336.2 113.7 340H115.8C116.6 339.1 117.4 338.1 118.2 337.3C120.6 334.7 122.8 332 125 329.1C125.4 328.6 124.7 327.8 124.3 328.3Z" fill="#1C2327"/>
<path d="M108.2 337.8C107.5 338.5 106.8 339.3 106 340H108.1C108.4 339.6 108.7 339.2 109.1 338.8C109.5 338.3 108.8 337.3 108.2 337.8Z" fill="#1C2327"/>
<path d="M116.7 331.7C114.3 334.5 111.8 337.3 109.3 340H111.8C112.4 339.3 113 338.5 113.7 337.8C115 336.2 116.3 334.9 117.6 333.3C117.8 333 118 332.8 118 332.2C118 331.5 117.1 330.9 116.7 331.7Z" fill="#1C2327"/>
<path d="M257.9 227.3C258.1 227 258.3 226.7 258.4 226.4C258.3 226.8 258.1 227.1 257.9 227.3Z" fill="#1C2327"/>
<path d="M561.7 257.7C561.3 257.4 560.6 258.2 561 258.8C563.2 261.7 565.1 264.3 567.3 267.2C567.3 267.2 567.5 267.5 567.7 267.5C568.1 267 567.7 266.7 567.5 266.4C565.6 263.5 563.8 260.3 561.7 257.7Z" fill="#1C2327"/>
<path d="M598.1 274.3C598.3 274.6 598.5 274 598.5 273.8C595.7 269.8 592.4 266.4 589.1 262.7C588.7 262.2 588.2 261.4 587.6 261.1C587.4 261.1 587.2 261.6 587.4 261.9C590.9 266.1 594.3 270.3 598.1 274.3Z" fill="#1C2327"/>
<path d="M443.6 194.2C444 194.5 444.7 193.9 444.5 193.4C443.4 191.3 442.1 189.2 440.8 187.1C440.4 186.6 439.7 187.4 439.9 187.9C441.2 190 442.2 192.1 443.6 194.2Z" fill="#1C2327"/>
<path d="M452.7 186.8C452.5 186.8 452 187.1 452.3 187.6C453 188.7 453.6 190 454.3 191C454.5 191.3 455 191 455 190.7C454.8 189.1 454.1 188.3 453.5 187.5C453.1 187.3 453.1 186.8 452.7 186.8Z" fill="#1C2327"/>
<path d="M512.6 284C513.3 285.1 514.3 286.6 514.6 287.2C515 287.7 515.9 287.2 515.9 286.4C515.5 285.1 514.6 284 513.9 282.7C513.3 281.9 512.2 283 512.6 284Z" fill="#1C2327"/>
<path d="M547.3 313.3C546.6 312.5 545.8 313.8 546.4 314.4C547.7 316 548.8 317.6 550.3 319.1C550.5 319.4 551 319.4 551.2 319.1C551.2 318.8 551 318.3 551 318.3C549.9 316.4 548.6 314.9 547.3 313.3Z" fill="#1C2327"/>
<path d="M257 237.4C256.3 238.2 255.5 239 254.8 240C254.6 240.3 254.6 241.1 254.8 241.3C255.5 242.1 256.1 241.3 256.5 240.8C257.2 240 258 239.5 258.5 238.7C259 237.7 257.7 236.6 257 237.4Z" fill="#1C2327"/>
<path d="M247 238.2C245.3 240.3 243.3 242.2 241.6 244.5C241.4 244.8 241.4 245.3 241.8 245.6C242.2 245.9 242.5 245.6 242.9 245.1C244.6 243.3 246.6 241.4 248.1 239.3C248.5 238.5 247.6 237.4 247 238.2Z" fill="#1C2327"/>
<path d="M230.7 248.7C227 252.9 223.1 256.9 219.6 261.3C219.4 262.4 220.3 262.1 220.7 261.6C224.6 257.9 228.5 254 232 249.5C232.2 249 231.1 248.2 230.7 248.7Z" fill="#1C2327"/>
<path d="M189.9 285.9C187.7 287.7 184.7 290.9 182.3 293.5C182.1 293.8 181.6 294 181.6 294.6C181.6 295.4 182.5 295.4 182.7 294.9C185.3 292.3 187.9 289.4 190.8 287C191.4 286.4 190.6 285.4 189.9 285.9Z" fill="#1C2327"/>
<path d="M389.1 204.5C389.1 203.4 387.8 202.9 387.4 203.7C380.6 212.9 371.5 224 366 232.2C365.6 233.3 366.9 234 367.5 233.3C372.5 227 377.3 220.4 382.3 214.3C384.5 211.1 387.3 208.2 389.1 204.5Z" fill="#1C2327"/>
<path d="M392.1 210.5C392.5 209.4 391 208.4 390.4 209.2C386.5 213.4 381.5 220 377.3 225.8C374.7 229.5 372.7 232.1 372.5 233.7C372.7 235.8 374.5 235 374.9 234.2C379.7 228.7 383.6 222.3 388 216.3C389.9 213.7 390.6 212.9 392.1 210.5Z" fill="#1C2327"/>
<path d="M391 217.1C387.3 221.8 383.3 225.9 380.5 231.4C380.4 231.4 380.4 231.5 380.4 231.6C380.2 232.1 380.6 232.9 381.1 232.7C381.8 232.7 381.8 232.4 382.2 231.9C385.9 227.9 389 223.2 392.4 218.7C393.4 217.6 391.9 215.8 391 217.1Z" fill="#1C2327"/>
<path d="M396.7 222.1C396.7 221 395.4 220.5 395 221.3C392.6 223.7 390.4 226.3 388.5 229.2C388.1 230 388.1 229.5 388.1 230.5C388.1 231.3 388.8 231.8 389.4 231.6C390.3 231.1 390.7 230 391.6 229.5C393.3 227.4 394.9 225.3 396.6 222.9C396.7 222.6 396.7 222.4 396.7 222.1Z" fill="#1C2327"/>
<path d="M397.1 229.2C396.7 229.7 395.6 230.3 395.8 231.3C396.5 232.6 397.5 230.8 398.2 230C398.4 229.2 397.6 228.7 397.1 229.2Z" fill="#1C2327"/>
<path d="M281.2 170.5C281.6 170.5 281.9 170.2 282.1 170C283 168.4 284.1 166.8 284.7 165.3C284.7 164.8 284.9 164.2 284.9 164C284.9 163.5 284.2 163.5 284 164C283.1 165.6 282 167.2 281.2 169C280.8 169.4 280.6 170.2 281.2 170.5Z" fill="#1C2327"/>
<path d="M285.1 177.1C281.4 183.4 277 189.5 273.3 196.3C273.1 197.1 272 197.9 272.4 198.9C273.3 200 273.7 198.1 274.4 197.3C278.1 191.8 281.4 186 284.6 180.2C285 179.1 285.9 178.4 285.9 177C286 176.8 285.3 176.5 285.1 177.1Z" fill="#1C2327"/>
<path d="M301.3 184.7C301.5 184.7 302 184.7 302.2 184.2C303.1 182.9 303.7 181.3 304.4 180C304.6 179.5 303.5 178.7 303.3 179.5C302.4 180.8 301.6 182.1 300.9 183.7C300.6 184.2 300.8 184.7 301.3 184.7Z" fill="#1C2327"/>
<path d="M320.4 183.6C321.1 183.3 321.3 182.3 321.7 181.8C321.7 181.3 321.9 180.7 321.9 180.2C321.7 179.1 320.4 178.9 319.9 179.9C319.7 180.7 319 181.2 318.8 182C318.7 183.1 319.6 183.9 320.4 183.6Z" fill="#1C2327"/>
<path d="M361 37.1C359.7 39.5 358 41.8 356.6 44.2C356.6 45.3 357.7 45 357.7 44.7C358.6 43.1 359.2 42.3 360.3 40.5C361 39.4 362 38.7 362.3 37.6C362.5 36.6 361.2 36.4 361 37.1Z" fill="#1C2327"/>
<path d="M397.4 148.3C396.7 149.4 396.5 150.4 396.1 151.5C396.1 151.5 396.1 151.5 396.1 151.2C395.9 151.5 395.9 152 396.1 152.5C397 153.6 397.6 152.5 398.1 152C398.5 151.2 399.2 150.4 399.4 149.4C399.8 147.8 397.8 147.3 397.4 148.3Z" fill="#1C2327"/>
<path d="M404.3 151.2C403.6 152.5 402.6 154.4 403 155.9C404.3 158.3 406.7 153.8 406.9 152.2C407.4 150.4 405.2 149.7 404.3 151.2Z" fill="#1C2327"/>
<path d="M412.2 163.1C412.9 163.6 413.3 162.6 413.3 162C413.1 161.5 412.4 161.2 412.2 161.7C412 162.3 411.7 162.8 412.2 163.1Z" fill="#1C2327"/>
</g>
<defs>
<clipPath id="clip0_3794_17067">
<rect width="728" height="340" fill="white"/>
</clipPath>
</defs>
</svg>
