<svg width="1875" height="318" viewBox="0 0 1875 318" fill="none" xmlns="http://www.w3.org/2000/svg">
<path d="M199.947 163.589L184.451 185.185L142.962 207.861L113.47 244.574L76.9795 248.353L46.9875 275.888H34.4908L0 304.503L1875 318L1791.52 240.795H1755.03L1653.06 131.195L1612.57 144.153L1559.58 131.195L1519.09 144.153L1459.61 98.2615L1425.12 111.219L1394.63 86.9236L1376.13 98.2615L1327.65 58.309L1303.15 86.9236L1276.66 71.8065L1239.67 98.2615L1213.68 86.9236L1150.19 144.153L1115.7 131.195L1070.71 164.129L1024.23 131.195L942.749 201.382H899.76L822.281 256.452H806.285L734.804 304.503L665.822 240.795H620.834L590.343 201.382H547.354L455.878 58.309H425.387L367.402 0L343.908 21.5959L264.929 86.9236L199.947 163.589Z" fill="#242D32"/>
</svg>
