<svg width="47" height="50" viewBox="0 0 47 50" fill="none" xmlns="http://www.w3.org/2000/svg">
<path d="M26.3787 29.8785C26.3787 28.9558 25.6279 28.2051 24.7053 28.2051H22.3508V31.552H24.7053C25.628 31.552 26.3787 30.8013 26.3787 29.8785Z" fill="#767F84"/>
<path d="M25.9538 34.4849H22.3508V37.8318H25.9538C26.8766 37.8318 27.6272 37.0811 27.6272 36.1583C27.6272 35.2355 26.8765 34.4849 25.9538 34.4849Z" fill="#767F84"/>
<path d="M23.7179 15.7061C14.2629 15.7061 6.5708 23.3982 6.5708 32.8531C6.5708 42.3081 14.2629 50.0002 23.7179 50.0002C33.1728 50.0002 40.865 42.3081 40.865 32.8531C40.865 23.3982 33.1728 15.7061 23.7179 15.7061ZM25.9537 40.7653H25.2303V43.7601H22.2972V40.7653H19.4177V25.272H22.2972V22.06H25.2303V25.3028C27.524 25.5643 29.3118 27.5161 29.3118 29.8785C29.3118 30.7976 29.0402 31.6538 28.5748 32.3734C29.7734 33.206 30.5604 34.5918 30.5604 36.1586C30.5603 38.6988 28.4937 40.7653 25.9537 40.7653Z" fill="#767F84"/>
<path d="M5.90514 7.70947L0.816162 14.9867H4.39282V20.7157H7.32595V14.9867H10.994L5.90514 7.70947Z" fill="#767F84"/>
<path d="M23.7179 0L18.6289 7.2771H22.2057V13.0062H25.1388V7.2771H28.807L23.7179 0Z" fill="#00ACE6"/>
<path d="M46.5176 14.9868L41.4285 7.70947L36.3396 14.9868H39.9162V20.7158H42.8493V14.9868H46.5176Z" fill="#767F84"/>
</svg>
