<svg width="48" height="48" viewBox="0 0 48 48" fill="none" xmlns="http://www.w3.org/2000/svg">
<path d="M45.7499 20.25V29.25C45.7499 39.195 37.6949 47.25 27.7499 47.25H20.2499C10.3049 47.25 2.24988 39.195 2.24988 29.25V20.25C2.24988 8.25 10.4999 7.5 10.4999 7.5V14.625C10.4999 16.0725 11.6774 17.25 13.1249 17.25C13.8449 17.25 14.5049 16.9575 14.9774 16.4775C15.4574 16.005 15.7499 15.345 15.7499 14.625V12C15.7499 3 23.9999 0.75 23.9999 0.75C23.9999 0.75 32.2499 3 32.2499 12V14.625C32.2499 16.0725 33.4274 17.25 34.8749 17.25C35.5949 17.25 36.2549 16.9575 36.7274 16.4775C37.2074 16.005 37.4999 15.345 37.4999 14.625V7.5C37.4999 7.5 45.7499 8.25 45.7499 20.25ZM35.9999 36V23.25L23.9999 15.75L11.9999 23.25V36L23.9999 43.5L35.9999 36Z" fill="#5C666C"/>
<path d="M35.9999 23.25V36L23.9999 43.5L11.9999 36V23.25L23.9999 15.75L35.9999 23.25ZM31.4999 33V26.25L26.2499 23.25C26.2499 22.005 25.2449 21 23.9999 21C22.7549 21 21.7499 22.005 21.7499 23.25L16.4999 26.25V33L21.7499 36C21.7499 37.245 22.7549 38.25 23.9999 38.25C25.2449 38.25 26.2499 37.245 26.2499 36L31.4999 33Z" fill="#1C2327"/>
<path d="M23.9999 25.5C25.2449 25.5 26.2499 24.495 26.2499 23.25L31.4999 26.25V33L26.2499 36C26.2499 34.755 25.2449 33.75 23.9999 33.75C22.7549 33.75 21.7499 34.755 21.7499 36L16.4999 33V26.25L21.7499 23.25C21.7499 24.495 22.7549 25.5 23.9999 25.5Z" fill="#00ACE6"/>
<path d="M8.24988 25.5C7.83588 25.5 7.49988 25.8353 7.49988 26.25V33.75C7.49988 34.1648 7.83588 34.5 8.24988 34.5C8.66388 34.5 8.99988 34.1648 8.99988 33.75V26.25C8.99988 25.8353 8.66388 25.5 8.24988 25.5Z" fill="#A1A7AA"/>
<path d="M39.7499 25.5C39.3359 25.5 38.9999 25.8353 38.9999 26.25V33.75C38.9999 34.1648 39.3359 34.5 39.7499 34.5C40.1639 34.5 40.4999 34.1648 40.4999 33.75V26.25C40.4999 25.8353 40.1639 25.5 39.7499 25.5Z" fill="#A1A7AA"/>
<path d="M19.9161 14.8741L23.9999 12.1516L28.0836 14.8741C28.2111 14.9588 28.8336 15.0938 29.1239 14.6663C29.3534 14.3213 29.2604 13.8563 28.9161 13.6261L24.4161 10.6261C24.1641 10.4573 23.8364 10.4573 23.5844 10.6261L19.0844 13.6261C18.7401 13.8563 18.6471 14.3213 18.8766 14.6663C19.1061 15.0106 19.5704 15.1028 19.9161 14.8741Z" fill="#A1A7AA"/>
</svg>
