<svg width="49" height="48" viewBox="0 0 49 48" fill="none" xmlns="http://www.w3.org/2000/svg">
<g clip-path="url(#clip0_328_10376)">
<path d="M35.5832 16.9692C28.6042 16.9692 22.927 22.6464 22.927 29.6253C22.927 36.6042 28.6041 42.2814 35.5831 42.2814C42.562 42.2814 48.3329 36.6042 48.3329 29.6253C48.3329 22.6464 42.5621 16.9692 35.5832 16.9692ZM37.0263 36.4024C37.0142 36.4069 37.0014 36.4048 36.9892 36.409V38.0627C36.9892 38.84 36.3603 39.469 35.583 39.469C34.8057 39.469 34.1767 38.84 34.1767 38.0627V36.3995C33.2506 36.0865 32.3631 35.4927 31.6045 34.5883C31.1046 33.9937 31.1815 33.1065 31.7776 32.6081C32.3722 32.1082 33.2621 32.1851 33.7578 32.7811C34.5021 33.6669 35.344 34.0184 36.0636 33.7602C36.617 33.5584 36.9892 33.0269 36.9892 32.4378C36.9892 31.6619 36.3588 31.0315 35.583 31.0315C33.2567 31.0315 31.3643 29.1391 31.3643 26.8129C31.3643 25.1141 32.375 23.5884 33.9393 22.9266C34.0167 22.8938 34.0987 22.8956 34.1768 22.8677V21.188C34.1768 20.4107 34.8058 19.7817 35.5831 19.7817C36.3603 19.7817 36.9893 20.4107 36.9893 21.188V22.8702C37.7175 23.1162 38.4275 23.5073 39.0616 24.1213C39.6191 24.6611 39.6329 25.5509 39.0918 26.1099C38.552 26.6674 37.6608 26.6798 37.1032 26.14C36.4193 25.4768 35.6627 25.2488 35.0364 25.5166C34.5146 25.7377 34.1767 26.2458 34.1767 26.813C34.1767 27.5889 34.8071 28.2192 35.583 28.2192C37.9093 28.2192 39.8016 30.1117 39.8016 32.4379C39.8018 34.2052 38.6867 35.7982 37.0263 36.4024Z" fill="#767F84"/>
<path d="M1.73987 31.0317C0.962587 31.0317 0.333618 31.6607 0.333618 32.438V46.5941C0.333618 47.3713 0.962587 48.0003 1.73987 48.0003H5.95852V31.0317H1.73987Z" fill="#5C666C"/>
<path d="M33.6852 8.7773L23.8416 0.339891C23.3169 -0.113297 22.5369 -0.113297 22.0123 0.339891L12.1688 8.7773C11.7211 9.15905 11.5604 9.77977 11.765 10.3319C11.9682 10.884 12.4942 11.2506 13.0834 11.2506H17.302C17.302 23.408 17.302 35.842 17.302 48.0001C20.9247 48.0001 23.4293 48.0001 27.1457 48.0001C27.923 48.0001 28.5519 47.3712 28.5519 46.5939V43.3863C23.5511 40.8205 20.1145 35.622 20.1145 29.6254C20.1145 23.6289 23.5512 18.4304 28.5519 15.8645V11.2507H32.7706C33.3597 11.2507 33.8858 10.884 34.089 10.332C34.2937 9.77977 34.133 9.15905 33.6852 8.7773Z" fill="#5C666C"/>
<path d="M10.271 19.7817C9.49371 19.7817 8.86475 20.4107 8.86475 21.188V31.0316V48C10.9188 48 12.4953 48 14.4897 48V19.7817H10.271Z" fill="#00ACE6"/>
</g>
<defs>
<clipPath id="clip0_328_10376">
<rect width="48" height="48" fill="white" transform="translate(0.333252)"/>
</clipPath>
</defs>
</svg>
